<svg width="56" height="56" fill="none" xmlns="http://www.w3.org/2000/svg"><path d="M54.914 11.255h-3.69v-1.26a1.086 1.086 0 0 0-.782-1.085 30.575 30.575 0 0 0-7.826-.999c-4.342 0-10.258.977-14.632 5.428C23.642 8.845 17.682 7.91 13.35 7.91a30.575 30.575 0 0 0-7.826.999c-.479.14-.801.587-.781 1.085v1.249H1.085C.486 11.244 0 11.73 0 12.329V47a1.086 1.086 0 0 0 1.617.945c.109-.055 10.964-5.992 26.117-2.171h.261c.086.01.174.01.26 0 15.197-3.854 26.052 2.073 26.117 2.17A1.086 1.086 0 0 0 56 47.01V12.34c0-.6-.486-1.085-1.086-1.085zM2.171 45.273V13.425h2.594V40.65a1.086 1.086 0 0 0 1.249 1.086 47.52 47.52 0 0 1 6.784-.543c3.146-.054 6.28.419 9.27 1.4A39.904 39.904 0 0 0 2.17 45.273zm10.627-6.241a47.76 47.76 0 0 0-5.905.38v-28.56a29.94 29.94 0 0 1 6.437-.716c4.06 0 9.66.934 13.546 5.32l.033 27.039c-2.258-1.477-6.665-3.463-14.111-3.463zM29.08 15.455c3.886-4.342 9.487-5.319 13.547-5.319 2.165.007 4.323.247 6.437.717v28.559a47.752 47.752 0 0 0-5.873-.39c-7.403 0-11.82 1.986-14.11 3.462V15.455zm24.738 29.819a39.912 39.912 0 0 0-19.94-2.682 28.223 28.223 0 0 1 9.313-1.4c2.286.013 4.568.19 6.828.532a1.086 1.086 0 0 0 1.248-1.085V13.425h2.595l-.044 31.848z" fill="#071F41"/></svg>