<svg fill="none" xmlns="http://www.w3.org/2000/svg" viewBox="0 0 89 83"><path d="M89 41.347c0 3.974-.86 7.874-2.58 11.67a72.882 72.882 0 0 1-7.237 12.5 5.526 5.526 0 0 1-.393.485l3.39 4.211a.886.886 0 0 1 .066 1.022c-.09.145-2.23 3.609-5.653 6.54-3.436 2.943-6.81 4.232-6.95 4.286a.89.89 0 0 1-.904-.166l-2.929-2.588a.895.895 0 0 1-.176-.213c-2.576 1.323-7.37 3.1-15.263 3.74-6.99.566-12.721-.318-17.036-2.628-.231-.123-.609-.306-1.017-.504-.699-.339-1.422-.688-1.817-.93-.389-.238-.837-.496-1.334-.784-3.856-2.227-11.034-6.374-16.503-15.848-4.636-8.03-5.118-12.025-5.543-15.55-.253-2.096-.472-3.906-1.563-6.343-2.776-6.2-5.047-7.438-5.07-7.45a.91.91 0 0 1-.46-.58.89.89 0 0 1 .124-.723c.45-.649 2.806-3.891 5.084-3.926 1.104-.018 1.86.365 2.41.645.567.286.58.276.741.155.173-.13.268-.366.41-.741.336-.896.845-2.248 3.46-2.31 2.083-.051 3.246 1.047 4.09 1.941.881-1.767 3.288-6.298 6.44-9.892 2.038-2.321 4.419-4.142 6.056-5.261 1.25-.854 2.074-1.368 2.639-1.662-.621-1.145-.888-1.924-1.095-2.528-.243-.71-.378-1.102-.948-1.716-1.896-2.043-.405-5.382-.126-5.786a.954.954 0 0 1 .68-.406c.51-.057.826.235 1.399.764.952.88 2.934 2.709 6.297 3.588 3.014.787 6.516.623 9.605.478 1.95-.092 3.793-.178 5.25-.003 4.76.574 14.666 1.769 22.81 9.07 3.894 3.492 7.295 7.875 9.68 12.407a.89.89 0 0 1 .136.26 37.282 37.282 0 0 1 1.539 3.368C88.237 33.791 89 37.602 89 41.347Zm-2.28 4.882c1.245-6.642-.247-13.11-3.099-18.747-.796-.39-3.46-1.521-7.488-1.437-4.747.099-6.247.92-6.26.93a.9.9 0 0 1-1.213-.313.88.88 0 0 1 .281-1.204c.176-.11 1.87-1.08 7.154-1.191 2.622-.054 4.719.356 6.194.801a43.162 43.162 0 0 0-8.124-9.84 29.977 29.977 0 0 0-4.772-3.49c-.796.326-3.097 1.059-6.96.66-4.498-.462-6.951-.633-6.975-.634a.897.897 0 0 1-.827-.948.889.889 0 0 1 .949-.826c.025.002 2.503.174 7.037.64 1.981.204 3.485.081 4.52-.105C61.319 7.682 55.58 6.99 52.33 6.599c-1.308-.157-3.078-.075-4.951.013-3.218.151-6.864.322-10.14-.534-3.502-.915-5.648-2.718-6.79-3.76-.216.829-.33 1.997.297 2.672.827.891 1.058 1.566 1.326 2.348.253.74.568 1.659 1.558 3.259.914 1.476 2.112 1.511 3.992 1.447 1.244-.044 2.653-.092 3.9.633 2.178 1.269 1.677 2.813 1.348 3.835-.179.553-.335 1.034-.218 1.535.384.047 1.462-.281 2.264-.525 1.84-.561 4.362-1.329 6.907-.913 1.422.232 2.291.658 2.737 1.34.52.797.303 1.644.127 2.325-.231.895-.21 1.069.163 1.326 1.425.984 2.726 1.258 4.527 1.639.758.16 1.619.343 2.586.601 1.512.404 2.569 1.18 3.142 2.306.871 1.712.632 4.177-.755 7.755a21.74 21.74 0 0 0-1.456 7.535v.028c0 .772.361 1.47.926 2.237 4.925 5.132 7.704 10.784 7.956 16.354.049 1.076.008 2.21-.097 3.358.314 1.251 1.283 2.005 2.208 2.313 1.152.382 2.768.256 3.85-1.248A71.065 71.065 0 0 0 84.8 52.284a26.978 26.978 0 0 0 1.411-3.87c-.429-.568-2.515-3.195-6.113-5.617-.425.187-2.994 1.28-5.27 1.413-1.135.066-2.594.104-3.102-.086l.627-1.664s-.02-.011-.074-.024c.02.005.524.111 2.445-.001 1.195-.07 2.54-.47 3.482-.806-4.69-2.703-6.361-3.1-6.378-3.104a.894.894 0 0 1-.678-1.054.885.885 0 0 1 1.041-.686c.194.04 2.042.47 7.286 3.525 3.557 2.071 5.979 4.48 7.243 5.919ZM69.5 80.192a25.242 25.242 0 0 0 5.934-3.767c2.453-2.1 4.242-4.553 4.954-5.602l-2.679-3.327c-.936 1.219-2.459 3.174-3.533 4.422-2.836 3.299-6.102 5.675-6.24 5.775a.924.924 0 0 1-.177.1 10.72 10.72 0 0 1-.542.382l2.282 2.017Zm-.184-5.915c1.064-.937 2.335-2.151 3.51-3.517.719-.836 1.666-2.026 2.488-3.079a5.311 5.311 0 0 1-1.99-.269 5.228 5.228 0 0 1-2.012-1.213c-.514 3.064-1.34 6.007-1.996 8.078Zm-2.58 2.058c.445-1.218 2.581-7.27 3.143-12.839a5.462 5.462 0 0 1-.086-1.076c.031-1.718-.09-3.36-.368-4.877-1.02-5.575-4.075-9.207-5.9-11.378-.323-.382-.61-.725-.85-1.03l-.226-.293a43.902 43.902 0 0 0-5.056-4.453c-7.444-5.64-11.004-5.29-12.715-5.122l-.248.024c-.443.04-1.244.288-2.092.55-2.205.684-5.224 1.618-7.452.735-2.057-.815-2.242-2.891-2.42-4.899-.129-1.44-.262-2.929-1.032-4.09-1.652-2.486-5.901-1.233-8.151-.1-.89.447-1.558.998-2.148 1.485-1.01.835-2.056 1.697-3.633 1.302-1.007-.252-1.657-.949-2.287-1.622-.798-.855-1.488-1.593-2.915-1.559-1.414.035-1.564.434-1.836 1.159-.183.486-.41 1.09-1.007 1.537-1.06.797-1.959.342-2.615.01-.47-.239-.914-.464-1.578-.453-.833.012-2.184 1.3-3.122 2.46 1.06.904 2.938 3.016 5.042 7.715 1.2 2.682 1.445 4.71 1.704 6.856.405 3.356.864 7.16 5.318 14.875 5.232 9.062 11.88 12.902 15.853 15.197.51.295.971.562 1.372.806.32.196 1.065.557 1.664.846.434.211.836.406 1.082.537 3.714 1.99 8.625 2.835 14.613 2.519-4.486-1.331-11.157-4.05-17.357-9.429-10.392-9.018-16.063-26.538-16.3-27.28a.89.89 0 0 1 1.697-.54c.054.169 5.21 16.096 14.322 25.13.577-1.75 1.733-5.816 1.086-8.644a138.443 138.443 0 0 0-.741-3.054c-.552-2.194-.95-3.78-1.023-5.645l-.001-.035a.89.89 0 0 1 1.78-.034c.062 1.601.41 3.046.896 4.984l1.664-1.732a.889.889 0 1 1 1.285 1.23l-2.442 2.542c.103.425.21.874.318 1.35.882 3.868-1.01 9.316-1.397 10.365l.024.021c3.327 2.887 6.828 4.98 10.023 6.489-1.291-2.37-2.958-6.24-1.726-8.703.817-1.636 2.287-2.88 3.71-4.085 1.554-1.317 3.022-2.56 3.574-4.19a.89.89 0 0 1 1.686.571c-.71 2.096-2.438 3.56-4.11 4.975-.607.514-1.199 1.015-1.726 1.531 1.156.373 3.344.995 5.13 1.015 2.543.028 6.144-1.24 6.18-1.252a.888.888 0 1 1 .597 1.675c-.158.057-3.934 1.388-6.797 1.356-2.513-.028-5.546-1.048-6.346-1.334-.112.174-.214.35-.305.531-1.107 2.22 1.734 7.315 2.817 8.925.041.061.074.125.098.191 5.066 2.008 8.822 2.496 8.888 2.504l.025.004c8.057-1.226 11.661-3.678 12.416-4.254Zm-5.618-35.207a23.57 23.57 0 0 1 1.571-7.868c1.159-2.99 1.437-5.113.828-6.308-.339-.666-.998-1.122-2.015-1.395a45.887 45.887 0 0 0-2.494-.578c-1.851-.392-3.45-.73-5.17-1.916-1.451-1.002-1.09-2.398-.875-3.232.092-.361.198-.77.106-.91-.038-.057-.288-.354-1.534-.558-2.135-.349-4.334.321-6.1.86-1.64.499-2.824.86-3.708.367-.272-.152-.63-.456-.785-1.044-.27-1.023.01-1.886.234-2.58.313-.973.39-1.205-.552-1.754-.801-.466-1.84-.43-2.94-.392-1.692.059-3.772.131-5.264-1.844-1.171.647-5.165 2.997-8.293 6.562-3.292 3.752-5.808 8.732-6.396 9.94.066.03.134.054.204.071.648.163 1.036-.098 2.066-.948.629-.52 1.413-1.166 2.48-1.703 3.446-1.734 8.247-2.59 10.436.706 1.02 1.537 1.18 3.332 1.322 4.915.17 1.912.315 3.012 1.304 3.404 1.644.652 4.316-.175 6.268-.78.981-.304 1.829-.566 2.459-.623l.233-.022c1.937-.191 5.966-.588 13.966 5.474a49.072 49.072 0 0 1 2.65 2.156Z" fill="#DFE2EB"/></svg>