<svg width="20" height="20" fill="none" xmlns="http://www.w3.org/2000/svg"><path d="M17.031 0H2.97A1.76 1.76 0 0 0 1.21 1.758v16.484c0 .97.788 1.758 1.758 1.758H17.03a1.76 1.76 0 0 0 1.758-1.758V1.758A1.76 1.76 0 0 0 17.031 0zm.586 18.242a.587.587 0 0 1-.586.586H2.97a.587.587 0 0 1-.586-.586V1.758c0-.323.263-.586.586-.586H17.03c.323 0 .586.263.586.586v16.484z" fill="#52555F"/><path d="M15.86 2.344H4.14a.586.586 0 0 0-.585.586v4.765c0 .324.262.586.586.586h11.718a.586.586 0 0 0 .586-.586V2.93a.586.586 0 0 0-.586-.586zm-.587 4.765H4.727V3.516h10.546v3.593zM6.484 9.453H4.141a.586.586 0 0 0-.586.586v2.344c0 .323.262.586.586.586h2.343a.586.586 0 0 0 .586-.586v-2.344a.586.586 0 0 0-.586-.586zm-.586 2.344H4.727v-1.172h1.171v1.172zM6.484 14.14H4.141a.586.586 0 0 0-.586.587v2.343c0 .324.262.586.586.586h2.343a.586.586 0 0 0 .586-.586v-2.343a.586.586 0 0 0-.586-.586zm-.586 2.344H4.727v-1.172h1.171v1.172zM11.172 9.453H8.828a.586.586 0 0 0-.586.586v2.344c0 .323.263.586.586.586h2.344a.586.586 0 0 0 .586-.586v-2.344a.586.586 0 0 0-.586-.586zm-.586 2.344H9.414v-1.172h1.172v1.172zM11.172 14.14H8.828a.586.586 0 0 0-.586.587v2.343c0 .324.263.586.586.586h2.344a.586.586 0 0 0 .586-.586v-2.343a.586.586 0 0 0-.586-.586zm-.586 2.344H9.414v-1.172h1.172v1.172zM15.86 9.453h-2.344a.586.586 0 0 0-.586.586v7.031c0 .324.262.586.586.586h2.343a.586.586 0 0 0 .586-.586v-7.03a.586.586 0 0 0-.586-.587zm-.587 7.031h-1.171v-5.859h1.171v5.86z" fill="#52555F"/></svg>