<svg width="56" height="56" fill="none" xmlns="http://www.w3.org/2000/svg"><path d="m53.858 22.436-1.22-1.293-4.284-11.546a5.024 5.024 0 0 0-4.679-3.255H13.08A5.007 5.007 0 0 0 8.4 9.597L4.176 21l-1.759 1.627A6.875 6.875 0 0 0 0 27.857V44.68a5.002 5.002 0 0 0 5.002 4.978H8.16a5.002 5.002 0 0 0 5.001-4.978v-2.44h29.676v2.44a5.002 5.002 0 0 0 5.001 4.978H51A5.002 5.002 0 0 0 56 44.68V27.414a6.939 6.939 0 0 0-2.142-4.978zM10.65 10.41a2.588 2.588 0 0 1 2.429-1.675h30.608c1.077 0 2.046.67 2.43 1.675l3.733 10.052h-2.788a8.196 8.196 0 0 0-9.322-6.917 8.2 8.2 0 0 0-6.916 6.917H6.916L10.65 10.41zm33.97 10.052H33.242a5.82 5.82 0 0 1 6.892-4.5 5.827 5.827 0 0 1 4.487 4.5zM10.77 44.68a2.602 2.602 0 0 1-2.61 2.585H5.003a2.602 2.602 0 0 1-2.609-2.585v-3.135c.718.467 1.663.694 2.609.694h5.767v2.441zm42.837 0a2.602 2.602 0 0 1-2.609 2.585H47.84a2.61 2.61 0 0 1-2.608-2.585v-2.44h5.767c.946 0 1.89-.228 2.609-.695v3.135zm-2.609-4.834H5.002a2.582 2.582 0 0 1-2.609-2.56v-9.43c0-1.316.586-2.572 1.592-3.422l.047-.048 1.628-1.531h45.314l1.15 1.232c.011.024.047.036.059.06a4.51 4.51 0 0 1 1.412 3.267v9.871h.012a2.59 2.59 0 0 1-2.609 2.561z" fill="#071F41"/><path d="M15.795 27.641H6.82a1.2 1.2 0 0 0-1.196 1.197v6.222a1.2 1.2 0 0 0 1.196 1.197h8.975a1.2 1.2 0 0 0 1.196-1.197v-6.222a1.2 1.2 0 0 0-1.196-1.197zm-1.197 6.222h-6.58v-3.829h6.58v3.83zM49.18 27.641h-8.975a1.2 1.2 0 0 0-1.197 1.197v6.222a1.2 1.2 0 0 0 1.197 1.197h8.974a1.2 1.2 0 0 0 1.197-1.197v-6.222a1.2 1.2 0 0 0-1.197-1.197zm-1.197 6.222h-6.581v-3.829h6.58v3.83zM33.78 32.666H22.22a1.2 1.2 0 0 0-1.196 1.197 1.2 1.2 0 0 0 1.197 1.197H33.78a1.2 1.2 0 0 0 1.196-1.197 1.2 1.2 0 0 0-1.196-1.197zM33.78 28.957H22.22a1.2 1.2 0 0 0-1.196 1.197 1.2 1.2 0 0 0 1.197 1.196H33.78a1.2 1.2 0 0 0 1.196-1.196 1.2 1.2 0 0 0-1.196-1.197z" fill="#071F41"/></svg>