<svg width="56" height="56" fill="none" xmlns="http://www.w3.org/2000/svg"><g clip-path="url(#a)" fill="#071F41"><path d="M54.285 23.651h-3.338c-.618 0-1.163.318-1.482.798-2.552-.266-2.892-.675-3.167-1.009a5.249 5.249 0 0 0-1.323-1.143l-7.67-4.658c-1.561-3.628-4.174-5.897-6.113-7.168a2.672 2.672 0 0 1-1.205-2.244c0-.536.158-1.055.457-1.5l1.907-2.839c.38-.565.511-1.243.37-1.91A2.498 2.498 0 0 0 30.28 0h-9.061a2.495 2.495 0 0 0-2.072 3.888l1.907 2.839c.3.445.457.964.457 1.5 0 .91-.45 1.749-1.206 2.244-2.873 1.884-9.293 7.437-6.866 18.29 1.354 6.054 2.4 10.32 3.029 12.374H2.94c-1.116 0-2.091.793-2.319 1.885L.16 45.239c-.146.701.029 1.422.48 1.978a2.36 2.36 0 0 0 1.838.874h46.54a2.36 2.36 0 0 0 1.838-.874 2.36 2.36 0 0 0 .481-1.978l-.462-2.22a2.379 2.379 0 0 0-2.319-1.884H35.03c.188-.614.415-1.431.678-2.443h.89a26.1 26.1 0 0 0 7.698-1.16l5.098-.642a1.78 1.78 0 0 0 1.553.914h3.338a1.78 1.78 0 0 0 1.779-1.779V25.43c0-.98-.798-1.779-1.779-1.779zM20.381 2.32a.854.854 0 0 1 .837-.678h9.061a.853.853 0 0 1 .837.678.851.851 0 0 1-.127.654l-.943 1.405H21.45l-.944-1.405a.847.847 0 0 1-.126-.654zm.823 9.524a4.308 4.308 0 0 0 1.947-3.616c0-.782-.21-1.54-.608-2.208h6.411a4.31 4.31 0 0 0-.608 2.208c0 1.465.728 2.816 1.947 3.616.503.33 1.055.733 1.62 1.217H19.589a15.763 15.763 0 0 1 1.616-1.217zm28.065 31.512.462 2.219a.717.717 0 0 1-.148.608.717.717 0 0 1-.565.268H2.478a.718.718 0 0 1-.564-.269.717.717 0 0 1-.148-.607l.462-2.22c.07-.335.37-.578.713-.578h45.615c.343 0 .642.243.713.579zm-15.96-2.22h-15.12c-.338-1.007-1.196-3.999-3.15-12.732-.824-3.682-.627-7.016.582-9.933h3.021a.82.82 0 1 0 0-1.64h-2.208c.463-.799.978-1.506 1.513-2.129h15.609c.536.625 1.05 1.332 1.51 2.128H21.928a.82.82 0 1 0 0 1.64h10.87a2.612 2.612 0 0 0-.117 1.619c.168.682.591 1.259 1.191 1.622l1.41.857h-9.117c-1.448 0-2.622 1.113-2.672 2.535-.014.379.052.747.19 1.086h-.842a2.61 2.61 0 0 0-1.893.804 2.623 2.623 0 0 0 1.078 4.321 2.634 2.634 0 0 0 2.377 3.758h1.242a2.634 2.634 0 0 0 2.437 3.621h5.93c-.345 1.305-.567 2.036-.704 2.443zm10.71-5.221a.833.833 0 0 0-.141.03 24.454 24.454 0 0 1-7.28 1.108h-8.515a.991.991 0 0 1 0-1.981h5.377a.82.82 0 0 0 0-1.64h-9.057a.992.992 0 0 1 0-1.981h9.057a.82.82 0 1 0 0-1.641H22.884c-.551 0-1.014-.428-1.033-.954a.987.987 0 0 1 .99-1.027H33.46a.82.82 0 0 0 0-1.64h-7.338a.983.983 0 0 1-.713-.303.986.986 0 0 1-.277-.725c.019-.525.482-.953 1.033-.953h11.307c.466 0 .864-.302.99-.75a1.018 1.018 0 0 0-.456-1.156l-3.283-1.994a.983.983 0 0 1-.448-.611.992.992 0 0 1 1.474-1.084l8.375 5.087c.345.21.651.475.91.787.67.81 1.532 1.297 4.134 1.581v9.197l-5.149.65zm10.404.111a.138.138 0 0 1-.138.138h-3.338a.139.139 0 0 1-.138-.138V25.43c0-.076.062-.138.138-.138h3.338c.076 0 .138.062.138.138v10.595zM39.334 53.354l-4.272-3.438a.82.82 0 0 0-1.029 1.279l3.935 3.164H13.529l3.942-3.17a.82.82 0 1 0-1.028-1.279l-4.28 3.443a1.472 1.472 0 0 0-.472 1.654c.213.603.764.993 1.404.993h25.307c.64 0 1.19-.39 1.403-.993a1.47 1.47 0 0 0-.47-1.653z"/></g><defs><clipPath id="a"><path fill="#fff" d="M0 0h56v56H0z"/></clipPath></defs></svg>