<svg width="56" height="56" fill="none" xmlns="http://www.w3.org/2000/svg"><path d="M13.535 4.725a.831.831 0 0 0-.83.83v.352a.831.831 0 0 0 1.661 0v-.351a.831.831 0 0 0-.83-.831zM11.12 7.492h-.352a.831.831 0 0 0 0 1.662h.351a.831.831 0 1 0 0-1.662zM12.414 6.027l-.248-.249a.83.83 0 0 0-1.175 1.176l.248.248a.828.828 0 0 0 1.175 0 .83.83 0 0 0 0-1.175zM12.414 9.444a.83.83 0 0 0-1.175 0l-.248.248a.83.83 0 1 0 1.175 1.175l.248-.248a.83.83 0 0 0 0-1.175z" fill="#071F41"/><path d="M49.797 6.853h-28.07a8.3 8.3 0 0 0-2.547-4.645A8.293 8.293 0 0 0 13.535 0C8.946 0 5.212 3.734 5.212 8.323c0 4.59 3.734 8.323 8.323 8.323.843 0 1.67-.128 2.47-.377a10.465 10.465 0 0 0 4.555 2.52 2.99 2.99 0 0 1 2.19 2.38l1.057 6.118a7.995 7.995 0 0 0 3.386 5.276c1.373.94 2.193 2.475 2.193 4.104v12.469a2.235 2.235 0 0 0-1.038 1.957c-2.076.424-3.786.815-5.084 1.161-.884.237-1.552.445-2.04.638-.454.179-1.301.512-1.301 1.287 0 1.04 1.353 1.218 2.44 1.361.934.123 2.228.225 3.846.304 2.734.134 5.503.156 5.53.156H31.753c.028 0 2.797-.023 5.53-.156 1.619-.079 2.913-.181 3.847-.304 1.087-.143 2.44-.32 2.44-1.361 0-.823-.76-1.248-3.532-1.975-1.68-.44-3.773-.886-5.276-1.19-.002-.6-.24-1.16-.655-1.572V36.666c0-1.628.82-3.162 2.192-4.103a7.996 7.996 0 0 0 3.387-5.276l1.056-6.118a2.99 2.99 0 0 1 2.19-2.38 10.503 10.503 0 0 0 7.553-7.666c.004-.014.008-.028.01-.042.191-.793.294-1.617.294-2.46v-.776a.992.992 0 0 0-.991-.992zm-36.262 8.13a6.669 6.669 0 0 1-6.66-6.66 6.669 6.669 0 0 1 6.66-6.661c1.68 0 3.284.627 4.517 1.766a6.645 6.645 0 0 1 1.98 3.425h-.852a5.845 5.845 0 0 0-5.645-4.365 5.841 5.841 0 0 0-5.834 5.835 5.841 5.841 0 0 0 6.553 5.788c.16.26.33.513.511.758a6.653 6.653 0 0 1-1.23.115zM16.08 5.78a.831.831 0 0 0-1.175 0l-.249.248a.83.83 0 0 0-.208.826h-.753a.992.992 0 0 0-.99.992v.776c0 .843.102 1.666.292 2.46l.01.045c.116.468.26.925.436 1.367a4.177 4.177 0 0 1-4.08-4.17c0-2.301 1.871-4.173 4.172-4.173a4.182 4.182 0 0 1 3.906 2.703h-1.277a.83.83 0 0 0-.084-1.074zm18.23 46.84c2.92.588 4.755 1.033 5.903 1.355-2.1.206-5.467.341-8.467.364-3-.023-6.366-.158-8.466-.364 1.098-.308 2.823-.729 5.526-1.28a1.53 1.53 0 0 0 1.204-1.627.571.571 0 0 1 .421-.596.83.83 0 0 0 .617-.803V36.666a6.557 6.557 0 0 0-.781-3.098c.464.03.971.046 1.479.046.508 0 1.015-.016 1.479-.046a6.56 6.56 0 0 0-.78 3.099v13.17c0 .284.145.55.386.702a.569.569 0 0 1 .267.52 1.506 1.506 0 0 0 1.212 1.56zM49.126 8.62c0 .5-.042.99-.123 1.47H23.99a.831.831 0 0 0 0 1.663h24.563a8.836 8.836 0 0 1-6.038 5.427 4.654 4.654 0 0 0-3.41 3.706l-1.056 6.117a6.346 6.346 0 0 1-2.689 4.188c-.223.153-.884.51-1.005.564-.658.259-4.553.259-5.215 0a11.99 11.99 0 0 1-1.006-.564 6.346 6.346 0 0 1-2.689-4.188l-1.056-6.117a4.655 4.655 0 0 0-3.41-3.706 8.808 8.808 0 0 1-4.104-2.389 8.861 8.861 0 0 1-1.934-3.039h5.183a.831.831 0 0 0 0-1.661H14.49a8.87 8.87 0 0 1-.123-1.471v-.106h34.76v.106z" fill="#071F41"/></svg>