<svg width="56" height="56" fill="none" xmlns="http://www.w3.org/2000/svg"><path d="M53.225 20.916h-1.113V16.78a4.438 4.438 0 0 0-4.433-4.433H31.613A4.43 4.43 0 0 0 28 14.216a4.43 4.43 0 0 0-3.613-1.868H14.294a.82.82 0 1 0 0 1.64h10.093a2.796 2.796 0 0 1 2.793 2.793v8.204c-.017-.017-.036-.032-.053-.048a5.364 5.364 0 0 0-3.62-1.43H9.842a2.813 2.813 0 0 0-1.86-2.437 2.725 2.725 0 0 0-.91-.154H5.53V16.78a2.796 2.796 0 0 1 2.792-2.793h2.692a.82.82 0 1 0 0-1.64H8.32a4.438 4.438 0 0 0-4.433 4.433v4.135H2.775A2.779 2.779 0 0 0 0 23.69v8.565a5.786 5.786 0 0 0 5.78 5.78h.412l-.899 2.418c-.566 1.524.6 3.198 2.223 3.198h1.32c.739 0 1.446-.352 1.891-.94l3.537-4.676h27.473l3.536 4.675c.445.59 1.152.941 1.891.941h1.32c1.625 0 2.79-1.674 2.223-3.198l-.9-2.418h.413a5.786 5.786 0 0 0 5.78-5.78v-8.565a2.779 2.779 0 0 0-2.775-2.775zM28.82 16.78a2.796 2.796 0 0 1 2.793-2.793h16.066a2.796 2.796 0 0 1 2.792 2.793v4.135h-1.544c-1.09 0-2.137.7-2.56 1.704-.119.281-.19.583-.21.888H32.495a5.38 5.38 0 0 0-3.674 1.477v-8.204zM9.85 25.148h13.657a3.678 3.678 0 0 1 3.674 3.674v1.166H9.849v-4.84zm-.43 16.573a.735.735 0 0 1-.583.29h-1.32a.737.737 0 0 1-.685-.985l1.111-2.99h4.264L9.42 41.721zm39.065.29h-1.32a.735.735 0 0 1-.583-.29l-2.788-3.685h4.265l1.111 2.99a.738.738 0 0 1-.685.985zm1.736-5.616H5.78a4.144 4.144 0 0 1-4.14-4.139v-8.565c0-.626.51-1.135 1.135-1.135h4.298c.626 0 1.135.51 1.135 1.135v7.117c0 .453.367.82.82.82h30.13a.82.82 0 1 0 0-1.64H28.82V28.82a3.677 3.677 0 0 1 3.673-3.673h13.658v4.84H42.44a.82.82 0 0 0 0 1.64h4.532a.82.82 0 0 0 .82-.82v-7.117c0-.626.51-1.135 1.135-1.135h4.297c.626 0 1.135.51 1.135 1.135v8.565a4.144 4.144 0 0 1-4.139 4.14z" fill="#071F41"/></svg>