<svg width="18" height="18" fill="none" xmlns="http://www.w3.org/2000/svg"><g clip-path="url(#a)" fill="#52555F"><path d="m16.308 4.023-.397-1.191a1.108 1.108 0 0 0-1.053-.759h-3.34V.986A.987.987 0 0 0 10.532 0H7.474a.987.987 0 0 0-.986.986v1.087h-3.34c-.478 0-.901.305-1.053.759l-.397 1.191a.894.894 0 0 0 .846 1.174h.415l.915 11.307c.068.839.78 1.496 1.62 1.496h7.203c.84 0 1.553-.657 1.62-1.496l.915-11.307h.23a.894.894 0 0 0 .846-1.174zM7.543 1.055h2.92v1.018h-2.92V1.055zm5.724 15.364a.575.575 0 0 1-.57.526H5.495a.575.575 0 0 1-.57-.526L4.017 5.197h10.157l-.907 11.222zM2.77 4.143l.326-.977a.055.055 0 0 1 .052-.038h11.71c.024 0 .045.015.052.038l.326.977H2.77z"/><path d="m11.585 16.381.027.001a.527.527 0 0 0 .527-.5l.495-9.506a.527.527 0 0 0-1.053-.055l-.496 9.506a.527.527 0 0 0 .5.554zM5.891 15.883a.527.527 0 0 0 1.053-.057L6.425 6.32a.527.527 0 1 0-1.053.057l.519 9.506zM9.009 16.382a.527.527 0 0 0 .527-.527V6.348a.527.527 0 1 0-1.054 0v9.507c0 .29.236.527.527.527z"/></g><defs><clipPath id="a"><path fill="#fff" d="M0 0h18v18H0z"/></clipPath></defs></svg>