<svg fill="none" xmlns="http://www.w3.org/2000/svg" viewBox="0 0 128 46"><g filter="url(#a)"><rect x="2" y="1" width="122" height="40" rx="20" fill="#F6F7FB"/><path d="M58.205 24.708c-.36.47-.859.825-1.497 1.066-.638.242-1.362.363-2.174.363-.834 0-1.572-.19-2.214-.568a3.805 3.805 0 0 1-1.49-1.62c-.347-.706-.527-1.529-.54-2.468v-.779c0-1.504.36-2.677 1.08-3.52.72-.848 1.724-1.272 3.014-1.272 1.108 0 1.987.274 2.639.82.651.547 1.043 1.336 1.175 2.366h-1.695c-.191-1.199-.886-1.798-2.085-1.798-.774 0-1.365.28-1.77.84-.401.557-.609 1.375-.622 2.455v.765c0 1.076.225 1.912.676 2.51.456.592 1.087.888 1.894.888.884 0 1.513-.2 1.887-.602v-1.948h-2.051v-1.312h3.773v3.814Zm1.709-2.475c0-.724.144-1.376.43-1.955.288-.583.691-1.03 1.21-1.34.52-.314 1.117-.471 1.792-.471.998 0 1.807.321 2.426.964.625.642.962 1.494 1.012 2.556l.007.39c0 .73-.141 1.38-.424 1.955a3.08 3.08 0 0 1-1.203 1.333c-.52.315-1.121.472-1.805.472-1.043 0-1.88-.347-2.508-1.04-.625-.697-.937-1.624-.937-2.782v-.082Zm1.661.144c0 .761.157 1.358.472 1.791.314.428.752.643 1.312.643s.996-.22 1.306-.657c.314-.437.472-1.078.472-1.92 0-.748-.162-1.34-.486-1.778-.319-.437-.754-.656-1.305-.656-.543 0-.973.216-1.292.65-.32.428-.479 1.07-.479 1.927Zm6.59-.144c0-.724.143-1.376.43-1.955.287-.583.69-1.03 1.21-1.34.52-.314 1.117-.471 1.791-.471.998 0 1.807.321 2.427.964.624.642.962 1.494 1.012 2.556l.007.39c0 .73-.142 1.38-.424 1.955a3.08 3.08 0 0 1-1.203 1.333c-.52.315-1.121.472-1.805.472-1.044 0-1.88-.347-2.509-1.04-.624-.697-.936-1.624-.936-2.782v-.082Zm1.66.144c0 .761.158 1.358.472 1.791.315.428.752.643 1.313.643.56 0 .996-.22 1.306-.657.314-.437.471-1.078.471-1.92 0-.748-.161-1.34-.485-1.778-.319-.437-.754-.656-1.306-.656-.542 0-.973.216-1.292.65-.319.428-.478 1.07-.478 1.927Zm6.61-.13c0-1.148.27-2.064.808-2.748.542-.688 1.26-1.032 2.153-1.032.843 0 1.506.294 1.99.882l.074-.745h1.497v7.17c0 .971-.303 1.737-.909 2.297-.601.56-1.415.841-2.44.841a3.929 3.929 0 0 1-1.593-.342c-.515-.223-.907-.517-1.176-.881l.786-.999c.51.607 1.14.91 1.887.91.552 0 .987-.15 1.306-.452.319-.296.478-.733.478-1.312v-.5c-.478.534-1.116.8-1.914.8-.866 0-1.574-.343-2.126-1.031-.547-.689-.82-1.641-.82-2.858Zm1.655.144c0 .743.15 1.328.451 1.757.306.423.727.635 1.265.635.67 0 1.167-.287 1.49-.861v-3.254c-.314-.56-.806-.84-1.476-.84-.547 0-.973.216-1.279.649-.3.433-.45 1.07-.45 1.914ZM86.717 26h-1.661V15.5h1.66V26Zm5.352.137c-1.053 0-1.907-.33-2.563-.992-.652-.665-.978-1.549-.978-2.652v-.205c0-.738.141-1.397.424-1.976a3.271 3.271 0 0 1 1.203-1.36 3.172 3.172 0 0 1 1.723-.485c1.007 0 1.784.321 2.33.964.552.642.828 1.551.828 2.727v.67h-4.833c.05.61.253 1.094.608 1.45.36.355.812.533 1.354.533.761 0 1.38-.308 1.86-.923l.895.854a3.01 3.01 0 0 1-1.19 1.032 3.72 3.72 0 0 1-1.66.363Zm-.198-6.337c-.456 0-.825.16-1.108.478-.278.32-.455.764-.533 1.333h3.165v-.123c-.036-.556-.184-.975-.444-1.258-.26-.287-.62-.43-1.08-.43Z" fill="#000"/><g clip-path="url(#b)"><path d="M39.659 19.334c.078 0 .141.065.141.145V21c0 .57-.051 1.126-.15 1.666-.767 4.194-4.375 7.364-8.7 7.334-4.853-.035-8.737-4.05-8.726-9.02.01-4.961 3.941-8.98 8.788-8.98 2.375 0 4.53.965 6.111 2.532.057.056.059.15.003.207l-2.102 2.152a.139.139 0 0 1-.197.003 5.447 5.447 0 0 0-3.815-1.562c-3.054 0-5.514 2.5-5.534 5.629-.021 3.148 2.465 5.707 5.534 5.707 2.49 0 4.597-1.685 5.291-4.002h-5.15a.143.143 0 0 1-.14-.145V19.48c0-.08.062-.145.14-.145h8.506Z" fill="#2196F3"/><path d="M39.658 19.334h-1.06c.078 0 .141.065.141.145V21c0 .57-.052 1.126-.15 1.666-.731 4.002-4.05 7.07-8.108 7.318.155.01.311.015.469.016 4.325.03 7.933-3.14 8.7-7.334.098-.54.15-1.097.15-1.666v-1.521a.143.143 0 0 0-.142-.145Z" fill="#1E88E5"/><path d="m25.985 18.626-2.67-1.975C24.814 13.878 27.699 12 31.013 12c2.374 0 4.529.965 6.11 2.532.058.056.06.15.003.207l-2.101 2.152a.139.139 0 0 1-.197.003 5.447 5.447 0 0 0-3.815-1.562c-2.23 0-4.15 1.35-5.027 3.294Z" fill="#F44336"/><path d="m25.214 18.056.77.57c.8-1.775 2.472-3.053 4.452-3.263l.044-.005a5.485 5.485 0 0 0-.53-.026c-2.013 0-3.768 1.087-4.736 2.724ZM36.062 14.532c.057.056.059.15.002.207l-1.705 1.747c.163.127.32.263.468.408a.139.139 0 0 0 .197-.003l2.101-2.152a.148.148 0 0 0-.002-.207 8.655 8.655 0 0 0-6.642-2.515 8.665 8.665 0 0 1 5.58 2.515Z" fill="#E53935"/><path d="M37.459 27.116C35.854 28.89 33.559 30 31.012 30c-3.44 0-6.42-2.025-7.862-4.975l2.725-1.912c.817 2.084 2.81 3.555 5.137 3.555 1.46 0 2.789-.58 3.777-1.526l2.67 1.974Z" fill="#4CAF50"/><path d="m25.875 23.113-.804.564c.933 1.78 2.769 2.991 4.88 2.991.178 0 .355-.009.53-.026-2.097-.204-3.852-1.606-4.606-3.53ZM31.012 30c2.547 0 4.842-1.11 6.447-2.884l-.654-.483c-1.507 1.92-3.768 3.195-6.322 3.35.175.011.351.017.529.017Z" fill="#43A047"/><path d="M25.477 21c0 .747.141 1.46.398 2.113l-2.725 1.912A9.135 9.135 0 0 1 22.224 21c0-1.577.396-3.06 1.092-4.349l2.669 1.975A5.76 5.76 0 0 0 25.477 21Z" fill="#FFC107"/><path d="m25.071 23.677.804-.564A5.77 5.77 0 0 1 25.477 21c0-.848.182-1.652.508-2.374l-.77-.57c-.501.846-.792 1.839-.799 2.905a5.751 5.751 0 0 0 .655 2.716Z" fill="#FFB300"/></g></g><defs><clipPath id="b"><path fill="#fff" transform="translate(22.224 12)" d="M0 0h17.576v18H0z"/></clipPath><filter id="a" x="0" y="0" width="128" height="46" filterUnits="userSpaceOnUse" color-interpolation-filters="sRGB"><feFlood flood-opacity="0" result="BackgroundImageFix"/><feColorMatrix in="SourceAlpha" values="0 0 0 0 0 0 0 0 0 0 0 0 0 0 0 0 0 0 127 0" result="hardAlpha"/><feOffset dx="1" dy="2"/><feGaussianBlur stdDeviation="1.5"/><feColorMatrix values="0 0 0 0 0.666667 0 0 0 0 0.698039 0 0 0 0 0.772549 0 0 0 0.2 0"/><feBlend in2="BackgroundImageFix" result="effect1_dropShadow_14:1389"/><feBlend in="SourceGraphic" in2="effect1_dropShadow_14:1389" result="shape"/></filter></defs></svg>