<svg width="63" height="57" fill="none" xmlns="http://www.w3.org/2000/svg"><path d="m62.97 44.58-.24-1.297a1.75 1.75 0 0 0-2.039-1.401l-4.892.899 2.215-1.482a1.747 1.747 0 0 0 .551-2.31l-.67-1.187a1.757 1.757 0 0 0-1.074-.831 1.76 1.76 0 0 0-.679-.043c.247-1.361.374-2.752.374-4.168 0-.628-.378-1.168-.917-1.408a7.077 7.077 0 0 0 .056-5.355 1.114 1.114 0 0 0-.626-.628 7.021 7.021 0 0 0-2.951-.493 4.878 4.878 0 0 0-4.862-4.632c-.343 0-.677.037-1 .104a7.604 7.604 0 0 0-.43-4.061 1.139 1.139 0 0 0-.638-.644 7.563 7.563 0 0 0-2.81-.54 7.535 7.535 0 0 0-4.046 1.17 9.126 9.126 0 0 0-2.172-3.477 1.556 1.556 0 0 0-1.109-.46c-.419 0-.813.163-1.11.46l-4.467 4.478a4.639 4.639 0 0 0-3.9-1.108 4.685 4.685 0 0 0-2.528 1.328 4.688 4.688 0 0 0-2.827-.396c-.21.036-.415.088-.614.15v-3.45a4.357 4.357 0 0 0-4.273-4.354V7.487a1.54 1.54 0 0 0 1.276-1.514V1.538A1.54 1.54 0 0 0 15.029 0H7.526a1.54 1.54 0 0 0-1.538 1.538v4.435a1.54 1.54 0 0 0 1.275 1.514v1.956a4.357 4.357 0 0 0-4.272 4.355v26.934C1.147 42.396 0 44.718 0 47.285c0 5.05 4.433 9.16 9.881 9.16l36.937-.011a4.23 4.23 0 0 0 3.253-1.52c.786-.94 1.12-2.16.927-3.364l7.378 1.325a1.743 1.743 0 0 0 1.33-.299c.383-.273.643-.698.712-1.163l.2-1.341a1.748 1.748 0 0 0-1.34-1.96l-2.6-.597 4.887-.898a1.74 1.74 0 0 0 1.127-.729c.264-.384.363-.849.278-1.308zM52.42 26.713c.556 0 1.102.088 1.627.261a5.226 5.226 0 0 1-.441 4.244H51.12l.793-.795a.923.923 0 0 0-1.306-1.304l-.42.421a4.28 4.28 0 0 0-.992-1.704 5.16 5.16 0 0 1 3.225-1.123zm-5.204-4.623a3.03 3.03 0 0 1 3.023 3.031c0 .031-.002.062-.003.092a7.012 7.012 0 0 0-2.634 1.563 4.22 4.22 0 0 0-.372-.124 4.281 4.281 0 0 0-2.55-3.173 3.018 3.018 0 0 1 2.536-1.39zm-4.878-5.141c.627 0 1.243.101 1.836.302a5.782 5.782 0 0 1-.228 4.262 4.902 4.902 0 0 0-1.182 1.639 4.31 4.31 0 0 0-2.454.95 4.882 4.882 0 0 0-.698-.968l2.116-2.121a.923.923 0 1 0-1.307-1.304l-2.313 2.318a4.825 4.825 0 0 0-1.416-.42 5.766 5.766 0 0 1 1.577-2.968 5.71 5.71 0 0 1 4.069-1.69zm-7.072 14.27h-.8a.922.922 0 0 0-1.717 0h-.94a.923.923 0 0 0-1.44-1.135l-.87.872a.92.92 0 0 0-.182.262h-1.878a7.3 7.3 0 0 1-1.184-3.724h14.64a7.299 7.299 0 0 1-1.183 3.724h-1.954a.918.918 0 0 0-.183-.262l-.87-.872a.923.923 0 0 0-1.439 1.134zm-2.146-5.57a3.03 3.03 0 0 1 2.918-2.241 3.03 3.03 0 0 1 2.917 2.24H33.12zM35.007 14.3a7.298 7.298 0 0 1 1.743 3.259 7.606 7.606 0 0 0-1.171 1.68.916.916 0 0 0-.481-.137h-1.23a.923.923 0 0 0 0 1.846h1.079a7.66 7.66 0 0 0-.142.773 4.826 4.826 0 0 0-1.044.407 4.659 4.659 0 0 0-2.84-2.17l-.002-.007a4.672 4.672 0 0 0-.37-1.182l4.458-4.47zm-16.682 8.327a2.817 2.817 0 0 1 4.337-3.194.923.923 0 0 0 1.322-.23 2.794 2.794 0 0 1 1.866-1.22 2.799 2.799 0 0 1 3.291 2.762c.001.477.367.876.843.917 1.031.091 1.91.74 2.317 1.655a4.865 4.865 0 0 0-1.067 2.33h-5.263c-.654 0-1.215.404-1.45.976a6.99 6.99 0 0 0-3.952-1.214c-.896 0-1.774.169-2.61.502a1.114 1.114 0 0 0-.625.627 7.067 7.067 0 0 0-.43 1.64 2.793 2.793 0 0 1-.655-1.37 2.815 2.815 0 0 1 1.594-3.032.923.923 0 0 0 .482-1.149zm2.75 8.338.253.252H19.11a5.229 5.229 0 0 1-.169-3.7 5.172 5.172 0 0 1 1.627-.262 5.17 5.17 0 0 1 4.05 1.941c.157.708.397 1.384.707 2.021h-1.391l-1.552-1.556a.923.923 0 1 0-1.307 1.304zm-3.93.252h-3.29a3.035 3.035 0 0 1 1.432-2.105 4.64 4.64 0 0 0 1.683 1.395c.047.24.104.477.176.71zM7.833 1.846h6.89v3.819h-6.89v-3.82zm5.614 5.665v1.93H9.108v-1.93h4.338zm-8.61 10.03h5.992a.923.923 0 1 0 0-1.846H4.835v-1.897a2.51 2.51 0 0 1 2.503-2.51h7.878a2.51 2.51 0 0 1 2.503 2.51v1.897h-1.723a.923.923 0 1 0 0 1.845h1.723v.82a4.651 4.651 0 0 0-1.335 4.12l.002.01a4.663 4.663 0 0 0-1.89 4.947 4.896 4.896 0 0 0-1.23.966h-8.43V17.54zm0 12.708h7.36a4.844 4.844 0 0 0-.202.97h-.155c-.85 0-1.54.69-1.54 1.541 0 1.465.136 2.904.4 4.311a10.171 10.171 0 0 0-.814-.032c-1.116 0-2.18.177-2.994.498-1.246.492-1.59 1.19-1.666 1.674-.132.066-.261.135-.39.206V30.25zM16.52 41.586c.332.266.536.492.653.655h-.034c-.522 0-1.46-.21-2.528-.801a6.653 6.653 0 0 1-1.059-.719.923.923 0 0 0-1.193 0c-.295.25-.661.499-1.058.719-1.067.59-2.006.801-2.528.801h-.035c.118-.163.321-.39.653-.655a.923.923 0 0 0-.469-1.637c-.9-.106-1.47-.335-1.736-.502.334-.208 1.178-.563 2.698-.563 1.259 0 2.179.265 2.62.513.28.157.623.157.904 0 .441-.248 1.361-.513 2.62-.513 1.52 0 2.364.355 2.698.563-.266.167-.836.396-1.736.502a.923.923 0 0 0-.47 1.637zm-1.846 11.232.032.171c.11.593.341 1.137.664 1.61h-5.49c-4.43 0-8.035-3.28-8.035-7.314 0-2.756 1.684-5.16 4.164-6.406.285.213.64.396 1.061.544a2.186 2.186 0 0 0-.31.912c-.037.425.093.83.366 1.138.361.407.915.614 1.647.614.975 0 2.254-.386 3.422-1.033.269-.148.523-.305.76-.47.239.164.493.322.762.47 1.168.647 2.447 1.033 3.422 1.033.732 0 1.285-.207 1.646-.614.273-.308.404-.712.367-1.138a2.187 2.187 0 0 0-.31-.912 3.97 3.97 0 0 0 1.06-.544c1.968.988 3.433 2.705 3.956 4.748l-6.527 2.48a4.22 4.22 0 0 0-2.657 4.711zm33.98.913a2.388 2.388 0 0 1-1.837.857h-.97l-.604-3.267a.923.923 0 1 0-1.815.336l.543 2.932-3.175.002-.41-2.21a.923.923 0 0 0-1.814.336l.347 1.874-7.386.003-.556-3a.923.923 0 1 0-1.815.335l.494 2.666-10.785.004a2.386 2.386 0 0 1-2.35-1.946l-.033-.171a2.375 2.375 0 0 1 1.498-2.65l3.627-1.378.27 1.458a.923.923 0 1 0 1.815-.336l-.332-1.788 5.384-2.045a.923.923 0 0 0-.655-1.726l-2.505.952c-.703-2.489-2.509-4.567-4.903-5.758-.075-.483-.42-1.182-1.665-1.674-.815-.322-1.878-.499-2.994-.499-.768 0-1.502.085-2.15.24v-.558a.923.923 0 0 0-1.492-.724 21.547 21.547 0 0 1-.24-2.932h30.058a.923.923 0 1 0 0-1.846h-.378c.588-1.21.92-2.567.92-4.001a1.57 1.57 0 0 0-1.417-1.561 2.432 2.432 0 0 1 1.683-.667 2.439 2.439 0 0 1 2.443 2.444c0 .478.366.876.842.918a2.447 2.447 0 0 1 2.194 2.017c.05.29.044.576-.006.85h-.99a.923.923 0 1 0 0 1.846h7.172a21.271 21.271 0 0 1-.647 4.95l-5.001 2.953a4.237 4.237 0 0 0-5.578-2.78L33.14 42.1a.923.923 0 0 0 .655 1.726l1.357-.516.422 2.275a.923.923 0 1 0 1.814-.336l-.482-2.605 7.19-2.731a2.395 2.395 0 0 1 2.025.149c.62.347 1.05.945 1.178 1.64l1.867 10.08a2.36 2.36 0 0 1-.512 1.949zm3.292-7.224a.923.923 0 0 0-.04 1.807l6.872 1.576-.172 1.152-7.965-1.432-1.245-6.722 6.938-4.096.578 1.024-5.852 3.911a.923.923 0 0 0 .68 1.675l9.192-1.688.204 1.105-9.19 1.688z" fill="#071F41"/></svg>