<svg width="56" height="56" fill="none" xmlns="http://www.w3.org/2000/svg"><g clip-path="url(#a)" fill="#071F41"><path d="m55.794 31.2-.997-14.534a3.499 3.499 0 0 0-1.205-2.42 3.498 3.498 0 0 0-2.565-.852 3.529 3.529 0 0 0-3.266 3.548l.118 11.848-5.133 6.574a3.3 3.3 0 0 1-3.412 1.154l5.585-7.252a3.128 3.128 0 0 0-.37-4.198 3.082 3.082 0 0 0-2.311-.802 3.084 3.084 0 0 0-2.177 1.116l-8.436 10.16a9.225 9.225 0 0 0-2.125 5.975l.131 13.492a.981.981 0 0 0 .98.972l14.047.02h.002a.981.981 0 0 0 .977-1.067l-.573-6.604 9.325-12.394a7.073 7.073 0 0 0 1.405-4.736zm-2.973 3.556L43.27 47.45a.981.981 0 0 0-.194.675l.513 5.911-12.005-.016-.121-12.522a7.258 7.258 0 0 1 1.672-4.703l8.436-10.16c.202-.243.488-.39.803-.411.316-.023.619.083.853.296.439.399.499 1.08.137 1.549l-6.337 8.23a.98.98 0 0 0 .235 1.416c2.268 1.504 5.357 1.002 7.031-1.143l5.344-6.844a.981.981 0 0 0 .208-.614l-.121-12.192a1.562 1.562 0 0 1 1.446-1.57c.419-.03.82.103 1.136.377.315.274.505.654.533 1.071l.997 14.534a5.111 5.111 0 0 1-1.015 3.422zM15.939 25.381a3.083 3.083 0 0 0-2.177-1.116 3.083 3.083 0 0 0-2.31.803 3.128 3.128 0 0 0-.37 4.198l5.584 7.252a3.301 3.301 0 0 1-3.412-1.154L8.12 28.79l.118-11.848a3.529 3.529 0 0 0-3.266-3.548 3.502 3.502 0 0 0-2.565.852 3.5 3.5 0 0 0-1.205 2.42L.206 31.2a7.074 7.074 0 0 0 1.404 4.736l9.326 12.393-.573 6.605A.98.98 0 0 0 11.34 56h.001l14.048-.02a.981.981 0 0 0 .98-.971l.13-13.492a9.226 9.226 0 0 0-2.124-5.976l-8.436-10.16zm8.477 28.638-12.005.017.513-5.911a.98.98 0 0 0-.194-.675L3.18 34.756a5.111 5.111 0 0 1-1.015-3.422L3.161 16.8a1.55 1.55 0 0 1 .533-1.071 1.548 1.548 0 0 1 1.136-.378c.819.06 1.454.75 1.446 1.571l-.121 12.192a.98.98 0 0 0 .208.614l5.343 6.844c1.676 2.145 4.764 2.647 7.032 1.143a.982.982 0 0 0 .235-1.417l-6.337-8.23a1.154 1.154 0 0 1 .137-1.548c.234-.213.537-.318.853-.297.315.022.6.169.803.412l8.436 10.16a7.26 7.26 0 0 1 1.672 4.703l-.121 12.521zM47.225 11.043a10.97 10.97 0 0 0-3.235-7.809A10.97 10.97 0 0 0 36.182 0c-2.95 0-5.723 1.149-7.809 3.234L28 3.608l-.373-.374A10.97 10.97 0 0 0 19.818 0c-2.95 0-5.723 1.149-7.808 3.234-4.306 4.306-4.306 11.312 0 15.617l15.296 15.297a.98.98 0 0 0 1.388 0L43.99 18.85a10.97 10.97 0 0 0 3.235-7.808zM28 32.066 13.398 17.463c-3.54-3.54-3.54-9.3 0-12.84a9.02 9.02 0 0 1 6.42-2.66 9.02 9.02 0 0 1 6.42 2.66l1.068 1.066a.98.98 0 0 0 1.388 0l1.067-1.067a9.02 9.02 0 0 1 6.42-2.66 9.02 9.02 0 0 1 6.421 2.66 9.02 9.02 0 0 1 2.66 6.42 9.021 9.021 0 0 1-2.66 6.422L28 32.066z"/></g><defs><clipPath id="a"><path fill="#fff" d="M0 0h56v56H0z"/></clipPath></defs></svg>