<svg width="56" height="56" fill="none" xmlns="http://www.w3.org/2000/svg"><path d="M53.688 0H2.312C1.523 0 .878.645.878 1.434c0 .788.645 1.434 1.434 1.434h3.094V54.53c0 .526.287 1.016.753 1.267.466.25 1.028.227 1.47-.072l6.225-4.146 6.248 4.158a1.426 1.426 0 0 0 1.59 0l6.224-4.146 6.25 4.158a1.426 1.426 0 0 0 1.588 0l6.225-4.146 6.249 4.158c.239.155.514.239.788.239.227 0 .466-.06.681-.167.466-.251.753-.741.753-1.267l-.024-51.663h3.262c.789 0 1.434-.645 1.434-1.433 0-.789-.645-1.47-1.434-1.47zm-6.093 51.854-4.815-3.202a1.426 1.426 0 0 0-1.59 0l-6.224 4.158-6.25-4.158a1.426 1.426 0 0 0-1.588 0l-6.225 4.146-6.249-4.146a1.425 1.425 0 0 0-1.589 0l-4.791 3.19V2.856h39.309l.012 48.998z" fill="#071F41"/><path d="M14.87 22.892h15.018c.788 0 1.433-.645 1.433-1.433 0-.789-.645-1.434-1.433-1.434H14.869c-.788 0-1.434.645-1.434 1.434a1.43 1.43 0 0 0 1.434 1.433zM14.87 27.875h11.254c.789 0 1.434-.645 1.434-1.434 0-.788-.645-1.434-1.434-1.434H14.87c-.788 0-1.434.645-1.434 1.434a1.43 1.43 0 0 0 1.434 1.434zM37.391 22.892h3.752c.788 0 1.434-.645 1.434-1.433 0-.789-.646-1.434-1.434-1.434H37.39c-.788 0-1.434.645-1.434 1.434a1.43 1.43 0 0 0 1.434 1.433zM37.391 27.875h3.752c.788 0 1.434-.645 1.434-1.434 0-.788-.646-1.434-1.434-1.434H37.39c-.788 0-1.434.645-1.434 1.434a1.43 1.43 0 0 0 1.434 1.434zM14.87 11.386h15.018c.788 0 1.433-.645 1.433-1.433 0-.789-.645-1.434-1.433-1.434H14.869c-.788 0-1.434.645-1.434 1.434a1.43 1.43 0 0 0 1.434 1.434zM14.87 16.357h11.254c.789 0 1.434-.645 1.434-1.434 0-.789-.645-1.434-1.434-1.434H14.87c-.788 0-1.434.645-1.434 1.434a1.43 1.43 0 0 0 1.434 1.434zM37.391 11.386h3.752c.788 0 1.434-.645 1.434-1.433 0-.789-.646-1.434-1.434-1.434H37.39c-.788 0-1.434.645-1.434 1.434a1.43 1.43 0 0 0 1.434 1.434zM37.391 16.357h3.752c.788 0 1.434-.645 1.434-1.434 0-.789-.646-1.434-1.434-1.434H37.39c-.788 0-1.434.645-1.434 1.434a1.43 1.43 0 0 0 1.434 1.434zM14.87 34.541h15.018c.788 0 1.433-.645 1.433-1.433 0-.789-.645-1.434-1.433-1.434H14.869c-.788 0-1.434.645-1.434 1.434a1.43 1.43 0 0 0 1.434 1.433zM14.87 39.512h11.254c.789 0 1.434-.646 1.434-1.434 0-.789-.645-1.434-1.434-1.434H14.87c-.788 0-1.434.645-1.434 1.434a1.43 1.43 0 0 0 1.434 1.434zM37.391 34.541h3.752c.788 0 1.434-.645 1.434-1.433 0-.789-.646-1.434-1.434-1.434H37.39c-.788 0-1.434.645-1.434 1.434a1.43 1.43 0 0 0 1.434 1.433zM37.391 39.512h3.752c.788 0 1.434-.646 1.434-1.434 0-.789-.646-1.434-1.434-1.434H37.39c-.788 0-1.434.645-1.434 1.434a1.43 1.43 0 0 0 1.434 1.434z" fill="#071F41"/></svg>