<svg width="56" height="56" fill="none" xmlns="http://www.w3.org/2000/svg"><g clip-path="url(#a)"><path d="m52.992 27.517-2.25-2.25V3.869l1.89-1.89a.948.948 0 1 0-1.341-1.34L49.4 2.526H28L25.752.277a.949.949 0 1 0-1.341 1.342l2.152 2.153-6.676 28.294a2.694 2.694 0 0 0 1.57 4.327l4.257.865a2.754 2.754 0 0 1 1.883 1.4c.39.726.436 1.58.126 2.343a2.758 2.758 0 0 1-3.13 1.664L8.64 39.285a4.905 4.905 0 0 0-5.634 3.172 4.89 4.89 0 0 0 .376 4.056 4.891 4.891 0 0 0 3.316 2.367l.066.013a4.214 4.214 0 0 1 2.929 2.157 4.215 4.215 0 0 1 .172 3.634.949.949 0 0 0 1.75.734 6.104 6.104 0 0 0-.25-5.263 6.104 6.104 0 0 0-4.241-3.125l-.066-.013a2.995 2.995 0 0 1-2.262-3.933 3.004 3.004 0 0 1 3.45-1.943l15.953 3.38a4.653 4.653 0 0 0 5.282-2.807 4.644 4.644 0 0 0-.213-3.953 4.644 4.644 0 0 0-3.177-2.362l-4.258-.864a.783.783 0 0 1-.607-.554.793.793 0 0 1 .063-.619l28.207-6.656 2.154 2.153a.947.947 0 0 0 1.341 0 .949.949 0 0 0 0-1.342zM47.504 4.424 38.7 13.226l-8.803-8.802h17.606zm-19.363.925 9.218 9.219-14.913 14.914L28.14 5.349zm-4.353 25.474L38.7 15.91l9.219 9.218-24.133 5.695zm25.057-7.453-8.803-8.802 8.803-8.802V23.37z" fill="#071F41"/></g><defs><clipPath id="a"><path fill="#fff" d="M0 0h56v56H0z"/></clipPath></defs></svg>