<svg aria-hidden="true" style="position: absolute; width: 0; height: 0; overflow: hidden;" version="1.1" xmlns="http://www.w3.org/2000/svg" xmlns:xlink="http://www.w3.org/1999/xlink">
<defs>

<symbol id="icon-Техника" viewBox="0 0 32 32">
<path d="M21.709 9.697c-0.345 0-0.625 0.279-0.625 0.625s0.28 0.625 0.625 0.625c0.346 0 0.625-0.28 0.625-0.625s-0.279-0.625-0.625-0.625z"></path>
<path d="M10.353 21.052c-0.346 0-0.625 0.28-0.625 0.625s0.279 0.625 0.625 0.625c0.345 0 0.625-0.279 0.625-0.625s-0.28-0.625-0.625-0.625z"></path>
<path d="M31.254 3.845c-0.211-0.049-0.433 0.015-0.585 0.168l-2.591 2.612h-1.242l-1.367-1.417v-1.26l2.554-2.592c0.151-0.153 0.213-0.374 0.163-0.584s-0.204-0.378-0.408-0.447c-0.642-0.216-1.313-0.326-1.996-0.326-2.036 0-3.885 0.949-5.074 2.604-1.113 1.549-1.456 3.448-0.964 5.265l-4.604 4.604-7.67-7.688v-1.509c0-0.219-0.115-0.423-0.303-0.536l-4.419-2.652c-0.246-0.148-0.561-0.109-0.763 0.094l-1.768 1.767c-0.203 0.203-0.241 0.518-0.094 0.764l2.651 4.419c0.113 0.188 0.316 0.303 0.536 0.303l1.508 0 7.671 7.688-4.586 4.586c-1.817-0.491-3.717-0.148-5.267 0.966-1.654 1.188-2.603 3.037-2.603 5.073 0 0.683 0.11 1.354 0.326 1.996 0.069 0.205 0.24 0.36 0.451 0.409s0.433-0.015 0.585-0.168l2.591-2.611h1.249l1.423 1.423v1.249l-2.611 2.591c-0.154 0.153-0.218 0.374-0.168 0.585s0.204 0.382 0.409 0.451c0.641 0.216 1.313 0.326 1.996 0.326 2.036 0 3.884-0.949 5.073-2.603 1.114-1.55 1.457-3.449 0.966-5.267l3.683-3.683 0.844 0.916-0.387 0.387c-0.244 0.244-0.244 0.64 0 0.884s0.64 0.244 0.884 0l0.351-0.351 7.916 8.599c0.006 0.006 0.012 0.012 0.018 0.019 1.465 1.465 3.838 1.465 5.304-0 1.461-1.462 1.461-3.841 0-5.303-0.006-0.006-0.013-0.012-0.020-0.019l-8.613-7.901 0.347-0.347c0.244-0.244 0.244-0.64 0-0.884s-0.64-0.244-0.884 0l-0.385 0.385-0.918-0.843 3.701-3.701c0.526 0.141 1.069 0.212 1.619 0.212 3.446 0 6.25-2.804 6.25-6.25 0-0.683-0.11-1.354-0.326-1.996-0.069-0.205-0.24-0.36-0.451-0.409zM5.518 6.371c-0.117-0.117-0.276-0.177-0.442-0.177l-1.414-0-2.218-3.704 1.077-1.077 3.697 2.219v1.414c0 0.166 0.066 0.324 0.183 0.441l7.854 7.871-0.884 0.884zM21.416 18.562l8.642 7.928c0.965 0.976 0.962 2.555-0.009 3.527-0.974 0.974-2.55 0.977-3.527 0.009l-7.942-8.627zM20.494 17.716l-2.762 2.762-0.844-0.916 2.688-2.688zM25.781 11.25c-0.547 0-1.084-0.088-1.597-0.261-0.225-0.075-0.473-0.017-0.641 0.15-3.133 3.133-9.885 9.885-12.371 12.371-0.168 0.168-0.226 0.416-0.15 0.642 0.52 1.543 0.271 3.188-0.682 4.515-0.95 1.323-2.429 2.082-4.057 2.082-0.183 0-0.365-0.010-0.545-0.029l1.985-1.97c0.118-0.117 0.185-0.277 0.185-0.444v-1.768c0-0.166-0.066-0.325-0.183-0.442l-1.789-1.789c-0.117-0.117-0.276-0.183-0.442-0.183h-1.768c-0.167 0-0.326 0.067-0.444 0.185l-1.969 1.985c-0.020-0.18-0.029-0.362-0.029-0.545 0-1.628 0.759-3.107 2.082-4.057 1.327-0.953 2.972-1.202 4.515-0.682 0.225 0.076 0.473 0.018 0.641-0.15 0.034-0.034 12.362-12.362 12.371-12.371 0.168-0.168 0.226-0.416 0.15-0.641-0.52-1.543-0.272-3.188 0.681-4.514 0.951-1.324 2.43-2.083 4.059-2.083 0.188 0 0.376 0.010 0.561 0.031l-1.944 1.973c-0.115 0.117-0.18 0.274-0.18 0.438v1.768c0 0.162 0.063 0.318 0.175 0.434l1.727 1.789c0.118 0.122 0.28 0.191 0.45 0.191h1.768c0.166 0 0.326-0.066 0.444-0.185l1.969-1.985c0.020 0.18 0.029 0.362 0.029 0.545 0 2.757-2.243 5-5 5z"></path>
<path d="M19.499 11.647l-7.821 7.821c-0.244 0.244-0.244 0.64 0 0.884s0.64 0.244 0.884 0l7.821-7.821c0.244-0.244 0.244-0.64 0-0.884s-0.64-0.244-0.884 0z"></path>
<path d="M27.397 28.25c0.244 0.243 0.64 0.243 0.884-0.001s0.243-0.64-0.001-0.884l-5.634-5.615c-0.244-0.244-0.64-0.243-0.884 0.001s-0.243 0.64 0.001 0.884z"></path>
</symbol>

<symbol id="icon-Транспорт" viewBox="0 0 32 32">
<path d="M30.776 12.82l-0.697-0.738-2.448-6.598c-0.417-1.115-1.484-1.853-2.674-1.86h-17.484c-1.19 0-2.256 0.745-2.674 1.86l-2.414 6.516-1.005 0.93c-0.875 0.745-1.381 1.839-1.381 2.988v9.614c0.007 1.573 1.285 2.844 2.858 2.844h1.805c1.573 0 2.851-1.272 2.858-2.844v-1.395h16.957v1.395c0.007 1.573 1.285 2.844 2.858 2.844h1.805c1.573 0 2.851-1.272 2.858-2.844v-9.867c-0.007-1.073-0.444-2.099-1.224-2.844zM6.085 5.949c0.219-0.581 0.773-0.957 1.388-0.957h17.491c0.615 0 1.169 0.383 1.388 0.957l2.133 5.744h-1.593c-0.376-2.564-2.762-4.335-5.326-3.952-2.044 0.301-3.651 1.908-3.952 3.952h-13.662l2.133-5.744zM25.497 11.692h-6.503c0.376-1.798 2.14-2.947 3.938-2.571 1.285 0.274 2.291 1.279 2.564 2.571zM6.154 25.532c-0.007 0.82-0.67 1.477-1.491 1.477h-1.805c-0.821 0-1.484-0.656-1.491-1.477v-1.791c0.41 0.267 0.95 0.397 1.491 0.397h3.296v1.395zM30.632 25.532c-0.007 0.82-0.67 1.477-1.491 1.477h-1.805c-0.82 0-1.484-0.663-1.491-1.477v-1.395h3.296c0.54 0 1.080-0.13 1.491-0.397v1.791zM29.142 22.769h-26.284c-0.814 0.007-1.484-0.643-1.491-1.463v-5.388c0-0.752 0.335-1.47 0.909-1.956 0.007-0.007 0.021-0.021 0.027-0.027l0.93-0.875h25.894l0.656 0.704c0.007 0.014 0.027 0.021 0.034 0.034 0.513 0.485 0.807 1.162 0.807 1.867v5.641h0.007c-0.007 0.814-0.677 1.47-1.491 1.463z"></path>
<path d="M9.026 15.795h-5.128c-0.376 0-0.684 0.308-0.684 0.684v3.556c0 0.376 0.308 0.684 0.684 0.684h5.128c0.376 0 0.684-0.308 0.684-0.684v-3.556c0-0.376-0.308-0.684-0.684-0.684zM8.342 19.35h-3.761v-2.188h3.761v2.188z"></path>
<path d="M28.103 15.795h-5.128c-0.376 0-0.684 0.308-0.684 0.684v3.556c0 0.376 0.308 0.684 0.684 0.684h5.128c0.376 0 0.684-0.308 0.684-0.684v-3.556c0-0.376-0.308-0.684-0.684-0.684zM27.419 19.35h-3.761v-2.188h3.761v2.188z"></path>
<path d="M19.303 18.667h-6.605c-0.376 0-0.684 0.308-0.684 0.684s0.308 0.684 0.684 0.684h6.605c0.376 0 0.684-0.308 0.684-0.684s-0.308-0.684-0.684-0.684z"></path>
<path d="M19.303 16.547h-6.605c-0.376 0-0.684 0.308-0.684 0.684s0.308 0.684 0.684 0.684h6.605c0.376 0 0.684-0.308 0.684-0.684s-0.308-0.684-0.684-0.684z"></path>
</symbol>

<symbol id="icon-Продукты" viewBox="0 0 32 32">
<path d="M12.373 12.429c-0.27-0.295-0.653-0.468-1.053-0.474-0.804-0.010-1.469 0.63-1.482 1.434-0.004 0.259 0.202 0.472 0.461 0.477 0.003 0 0.005 0 0.008 0 0.255 0 0.464-0.205 0.469-0.461 0.005-0.287 0.241-0.517 0.53-0.512 0.145 0.002 0.278 0.062 0.375 0.169 0.175 0.191 0.471 0.205 0.662 0.030s0.205-0.471 0.030-0.662z"></path>
<path d="M14.867 13.957c-0.144-0.338-0.423-0.604-0.768-0.731-0.692-0.255-1.464 0.1-1.72 0.791-0.090 0.243 0.034 0.512 0.276 0.603 0.054 0.020 0.109 0.029 0.163 0.029 0.19 0 0.369-0.117 0.44-0.306 0.077-0.208 0.309-0.314 0.517-0.237 0.104 0.039 0.186 0.116 0.229 0.219 0.101 0.238 0.377 0.349 0.615 0.248s0.349-0.377 0.248-0.615z"></path>
<path d="M17.888 9.805c-0.183-0.183-0.48-0.183-0.663 0.001l-0.442 0.443c-0.183 0.183-0.183 0.48 0.001 0.663 0.091 0.091 0.211 0.137 0.331 0.137s0.24-0.046 0.332-0.138l0.442-0.443c0.183-0.183 0.183-0.48-0.001-0.663z"></path>
<path d="M14.972 15.857h-0.625c-0.259 0-0.469 0.21-0.469 0.469s0.21 0.469 0.469 0.469h0.625c0.259 0 0.469-0.21 0.469-0.469s-0.21-0.469-0.469-0.469z"></path>
<path d="M19.762 15.857h-0.625c-0.259 0-0.469 0.21-0.469 0.469s0.21 0.469 0.469 0.469h0.625c0.259 0 0.469-0.21 0.469-0.469s-0.21-0.469-0.469-0.469z"></path>
<path d="M31.985 24.309l-0.122-0.659c-0.078-0.421-0.445-0.727-0.874-0.727-0.054 0-0.108 0.005-0.161 0.015l-2.485 0.456 1.125-0.752c0.295-0.197 0.444-0.55 0.38-0.9-0.018-0.096-0.051-0.188-0.1-0.274l-0.341-0.603c-0.117-0.207-0.316-0.361-0.545-0.422-0.113-0.030-0.23-0.037-0.345-0.022 0.125-0.692 0.19-1.398 0.19-2.117 0-0.319-0.192-0.594-0.466-0.716 0.358-0.852 0.383-1.827 0.029-2.72-0.029-0.073-0.071-0.137-0.127-0.193s-0.119-0.097-0.192-0.126c-0.424-0.169-0.87-0.255-1.325-0.255-0.058 0-0.116 0.002-0.174 0.004-0.065-1.308-1.148-2.353-2.47-2.353-0.174 0-0.344 0.018-0.508 0.053 0.114-0.681 0.047-1.394-0.218-2.063-0.029-0.074-0.071-0.14-0.13-0.199-0.056-0.056-0.122-0.099-0.195-0.128-0.457-0.182-0.937-0.274-1.427-0.274-0.738 0-1.445 0.208-2.055 0.594-0.223-0.645-0.59-1.251-1.104-1.766-0.15-0.151-0.35-0.234-0.563-0.234s-0.413 0.083-0.563 0.234l-2.27 2.275c-0.42-0.375-0.973-0.599-1.573-0.599-0.136 0-0.274 0.012-0.409 0.035-0.489 0.085-0.939 0.324-1.284 0.675-0.442-0.213-0.949-0.286-1.436-0.201-0.107 0.019-0.211 0.045-0.312 0.077v-1.753c0-1.207-0.97-2.191-2.17-2.212v-0.994c0.367-0.064 0.648-0.384 0.648-0.769v-2.252c0-0.431-0.35-0.781-0.781-0.781h-3.812c-0.431 0-0.781 0.35-0.781 0.781v2.252c0 0.385 0.28 0.705 0.648 0.769v0.994c-1.2 0.021-2.17 1.005-2.17 2.212v13.681c-0.936 0.845-1.518 2.024-1.518 3.329 0 2.565 2.252 4.652 5.019 4.652l18.762-0.006c0.64-0 1.243-0.282 1.652-0.772 0.399-0.477 0.569-1.097 0.471-1.709l3.747 0.673c0.052 0.009 0.105 0.014 0.158 0.014 0.187 0 0.366-0.057 0.518-0.166 0.195-0.139 0.327-0.355 0.362-0.591l0.102-0.681c0.015-0.098 0.013-0.196-0.005-0.292-0.064-0.348-0.33-0.625-0.676-0.704l-1.321-0.303 2.483-0.456c0.234-0.043 0.437-0.174 0.572-0.37s0.185-0.431 0.142-0.664zM26.626 15.233c0.282 0 0.56 0.045 0.826 0.133 0.238 0.726 0.149 1.509-0.224 2.156h-1.263l0.403-0.404c0.183-0.183 0.183-0.48-0.001-0.663s-0.48-0.183-0.663 0.001l-0.213 0.214c-0.1-0.329-0.274-0.624-0.504-0.865 0.465-0.369 1.036-0.571 1.638-0.571zM23.983 12.885c0.847 0 1.535 0.691 1.535 1.54 0 0.016-0.001 0.031-0.001 0.047-0.494 0.161-0.95 0.429-1.338 0.794-0.062-0.023-0.125-0.045-0.189-0.063-0.137-0.741-0.636-1.335-1.296-1.612 0.274-0.424 0.749-0.706 1.289-0.706zM21.505 10.274c0.318 0 0.631 0.052 0.933 0.153 0.242 0.72 0.193 1.494-0.116 2.165-0.254 0.231-0.46 0.514-0.601 0.833-0.084 0.005-0.167 0.014-0.25 0.028-0.367 0.064-0.71 0.223-0.996 0.454-0.098-0.179-0.217-0.344-0.355-0.492l1.075-1.077c0.183-0.183 0.183-0.48-0.001-0.663s-0.48-0.183-0.663 0.001l-1.175 1.178c-0.224-0.106-0.465-0.179-0.719-0.214 0.11-0.559 0.381-1.086 0.801-1.507 0.552-0.554 1.286-0.859 2.067-0.859zM17.913 17.522h-0.406c-0.068-0.174-0.238-0.298-0.436-0.298s-0.368 0.123-0.436 0.298h-0.478c0.111-0.181 0.089-0.42-0.068-0.577-0.183-0.183-0.48-0.183-0.663 0.001l-0.442 0.443c-0.040 0.040-0.070 0.085-0.093 0.133h-0.954c-0.357-0.548-0.575-1.195-0.601-1.892h7.437c-0.026 0.696-0.244 1.343-0.601 1.892h-0.993c-0.022-0.048-0.053-0.093-0.093-0.133l-0.442-0.443c-0.183-0.183-0.48-0.184-0.663-0.001-0.157 0.156-0.179 0.396-0.068 0.577zM16.823 14.692c0.177-0.655 0.774-1.138 1.482-1.138s1.305 0.483 1.482 1.138h-2.964zM17.781 8.929c0.446 0.482 0.741 1.054 0.885 1.655-0.239 0.26-0.438 0.547-0.595 0.853-0.071-0.044-0.155-0.069-0.244-0.069h-0.625c-0.259 0-0.469 0.21-0.469 0.469s0.21 0.469 0.469 0.469h0.548c-0.031 0.129-0.055 0.26-0.072 0.392-0.186 0.049-0.364 0.118-0.53 0.207-0.312-0.539-0.83-0.941-1.443-1.102-0-0.001-0-0.003-0.001-0.004-0.037-0.212-0.101-0.413-0.188-0.6l2.265-2.27zM9.308 13.158c-0.027-0.077-0.048-0.156-0.062-0.235-0.134-0.775 0.388-1.516 1.165-1.651 0.082-0.014 0.165-0.021 0.247-0.021 0.309 0 0.604 0.098 0.853 0.285 0.103 0.077 0.234 0.108 0.361 0.086s0.239-0.095 0.311-0.203c0.22-0.332 0.557-0.552 0.948-0.62 0.082-0.014 0.165-0.021 0.248-0.021 0.694 0 1.285 0.497 1.403 1.182 0.014 0.078 0.021 0.16 0.021 0.243 0 0.243 0.186 0.445 0.428 0.466 0.524 0.046 0.97 0.376 1.177 0.841-0.277 0.332-0.469 0.738-0.542 1.184h-2.673c-0.332 0-0.618 0.205-0.736 0.496-0.588-0.401-1.281-0.616-2.008-0.616-0.455 0-0.901 0.086-1.325 0.255-0.072 0.029-0.136 0.071-0.191 0.126s-0.098 0.121-0.126 0.192c-0.108 0.272-0.18 0.552-0.219 0.833-0.168-0.191-0.286-0.429-0.333-0.696-0.11-0.636 0.223-1.269 0.809-1.54 0.22-0.102 0.327-0.355 0.245-0.584zM10.705 17.393l0.128 0.128h-1.126c-0.253-0.586-0.291-1.254-0.086-1.88 0.267-0.088 0.544-0.133 0.826-0.133 0.706 0 1.371 0.276 1.871 0.777 0.066 0.067 0.128 0.137 0.187 0.209 0.079 0.36 0.201 0.703 0.359 1.027h-0.706l-0.789-0.79c-0.183-0.183-0.48-0.184-0.663-0.001s-0.184 0.48-0.001 0.663zM8.709 17.522h-1.671c0.074-0.454 0.348-0.841 0.727-1.069 0.224 0.301 0.517 0.544 0.855 0.709 0.024 0.122 0.053 0.242 0.089 0.361zM3.978 2.602h3.499v1.94h-3.499v-1.94zM6.83 5.48v0.981h-2.204v-0.981h2.204zM2.456 10.574h3.044c0.259 0 0.469-0.21 0.469-0.469s-0.21-0.469-0.469-0.469h-3.044v-0.963c0-0.703 0.57-1.275 1.271-1.275h4.002c0.701 0 1.271 0.572 1.271 1.275v0.963h-0.875c-0.259 0-0.469 0.21-0.469 0.469s0.21 0.469 0.469 0.469h0.875v0.416c-0.537 0.527-0.816 1.299-0.678 2.093 0 0.002 0.001 0.003 0.001 0.005-0.752 0.516-1.153 1.433-0.993 2.354 0.009 0.054 0.021 0.107 0.034 0.159-0.234 0.129-0.444 0.296-0.625 0.491h-4.283v-5.518zM2.456 17.029v0h3.738c-0.050 0.158-0.085 0.322-0.102 0.492h-0.079c-0.431 0-0.782 0.351-0.782 0.783 0 0.744 0.069 1.475 0.203 2.19-0.135-0.011-0.273-0.017-0.413-0.017-0.567 0-1.107 0.090-1.521 0.253-0.633 0.25-0.808 0.605-0.846 0.85-0.067 0.033-0.133 0.069-0.198 0.105v-4.657zM8.392 22.788c0.169 0.135 0.272 0.25 0.332 0.333-0.006 0-0.011 0-0.017 0-0.265 0-0.742-0.107-1.284-0.407-0.202-0.112-0.388-0.238-0.538-0.365-0.175-0.148-0.431-0.148-0.606 0-0.15 0.127-0.336 0.253-0.537 0.365-0.542 0.3-1.019 0.407-1.284 0.407-0.006 0-0.012-0-0.018-0 0.060-0.083 0.163-0.198 0.332-0.333 0.148-0.118 0.21-0.313 0.158-0.495s-0.208-0.314-0.396-0.336c-0.457-0.054-0.747-0.17-0.882-0.255 0.17-0.106 0.599-0.286 1.371-0.286 0.639 0 1.107 0.134 1.331 0.26 0.143 0.080 0.316 0.080 0.459 0 0.224-0.126 0.692-0.26 1.331-0.26 0.772 0 1.201 0.18 1.371 0.286-0.135 0.085-0.425 0.201-0.882 0.255-0.188 0.022-0.344 0.155-0.396 0.337s0.010 0.377 0.158 0.495zM7.454 28.493l0.016 0.087c0.056 0.301 0.173 0.577 0.338 0.818h-2.788c-2.251 0-4.082-1.666-4.082-3.715 0-1.4 0.856-2.621 2.115-3.254 0.145 0.108 0.325 0.201 0.539 0.276-0.085 0.145-0.144 0.301-0.158 0.463-0.018 0.216 0.048 0.421 0.186 0.578 0.183 0.207 0.465 0.312 0.836 0.312 0.495 0 1.145-0.196 1.738-0.524 0.137-0.076 0.266-0.155 0.387-0.239 0.121 0.083 0.25 0.163 0.387 0.239 0.593 0.328 1.243 0.524 1.738 0.524h0c0.371 0 0.653-0.105 0.836-0.312 0.139-0.157 0.205-0.362 0.186-0.578-0.014-0.163-0.073-0.318-0.158-0.463 0.214-0.075 0.394-0.168 0.539-0.276 0.999 0.502 1.743 1.374 2.009 2.412l-3.315 1.259c-0.97 0.369-1.538 1.375-1.349 2.393zM24.714 28.957c-0.231 0.277-0.571 0.436-0.933 0.436l-0.492 0-0.307-1.66c-0.047-0.255-0.292-0.423-0.546-0.376s-0.423 0.292-0.376 0.546l0.276 1.489-1.613 0.001-0.208-1.122c-0.047-0.255-0.292-0.423-0.546-0.376s-0.423 0.292-0.376 0.546l0.176 0.952-3.752 0.001-0.282-1.524c-0.047-0.255-0.292-0.423-0.546-0.375s-0.423 0.292-0.376 0.546l0.251 1.354-5.478 0.002c-0 0-0 0-0 0-0.586 0-1.088-0.416-1.194-0.988l-0.016-0.087c-0.106-0.572 0.214-1.138 0.761-1.346l1.842-0.7 0.137 0.741c0.042 0.226 0.239 0.383 0.46 0.383 0.028 0 0.057-0.003 0.086-0.008 0.255-0.047 0.423-0.292 0.375-0.546l-0.168-0.908 2.735-1.039c0.242-0.092 0.364-0.363 0.272-0.605s-0.363-0.364-0.605-0.272l-1.273 0.483c-0.357-1.264-1.274-2.32-2.49-2.925-0.038-0.245-0.213-0.6-0.846-0.85-0.414-0.163-0.954-0.253-1.521-0.253-0.39 0-0.763 0.043-1.092 0.122v-0.283c0-0.259-0.21-0.469-0.469-0.469-0.109 0-0.21 0.038-0.29 0.101-0.074-0.489-0.115-0.986-0.122-1.489h15.268c0.259 0 0.469-0.21 0.469-0.469s-0.21-0.469-0.469-0.469h-0.192c0.299-0.615 0.467-1.304 0.467-2.032 0-0.414-0.316-0.754-0.72-0.793 0.176-0.166 0.395-0.277 0.639-0.32 0.072-0.012 0.144-0.019 0.216-0.019 0.605 0 1.119 0.433 1.223 1.029 0.012 0.069 0.018 0.14 0.018 0.212 0 0.243 0.186 0.445 0.428 0.466 0.56 0.049 1.018 0.471 1.115 1.024 0.026 0.147 0.022 0.293-0.003 0.432h-0.503c-0.259 0-0.469 0.21-0.469 0.469s0.21 0.469 0.469 0.469h3.643c-0.012 0.86-0.122 1.7-0.329 2.515l-2.54 1.5c-0.155-0.541-0.517-0.999-1.014-1.278-0.558-0.312-1.221-0.361-1.819-0.134l-5.232 1.988c-0.242 0.092-0.364 0.363-0.272 0.605s0.363 0.364 0.605 0.272l0.689-0.262 0.214 1.155c0.042 0.226 0.239 0.384 0.46 0.384 0.028 0 0.057-0.003 0.086-0.008 0.255-0.047 0.423-0.292 0.376-0.546l-0.245-1.323 3.652-1.387c0.338-0.128 0.713-0.101 1.029 0.076s0.533 0.48 0.599 0.833l0.948 5.12c0.065 0.353-0.029 0.714-0.26 0.99zM26.386 25.287c-0.219 0.040-0.379 0.228-0.384 0.451s0.147 0.417 0.364 0.467l3.49 0.8-0.087 0.585-4.046-0.727-0.632-3.415 3.524-2.080 0.294 0.52-2.972 1.987c-0.185 0.124-0.257 0.36-0.174 0.566s0.3 0.325 0.519 0.285l4.669-0.858 0.104 0.561-4.668 0.858z"></path>
</symbol>

<symbol id="icon-Образование" viewBox="0 0 32 32">
<path d="M31.38 6.431c-0.002 0-0.004 0-0.006 0v0h-2.103v-0.72c0.011-0.285-0.173-0.541-0.447-0.62-1.46-0.383-2.963-0.574-4.472-0.571-2.481 0-5.862 0.558-8.361 3.101-2.481-2.568-5.886-3.101-8.361-3.101-1.509-0.004-3.012 0.188-4.472 0.571-0.274 0.080-0.458 0.335-0.447 0.62v0.713h-2.090c-0.343 0-0.62 0.278-0.62 0.62v19.812c0 0.343 0.278 0.62 0.62 0.62 0.107-0 0.211-0.028 0.304-0.081 0.062-0.031 6.265-3.424 14.924-1.241h0.149c0.049 0.006 0.099 0.006 0.149 0 8.684-2.202 14.887 1.185 14.924 1.241 0.192 0.111 0.428 0.111 0.62 0 0.191-0.11 0.309-0.313 0.31-0.533v-19.812c0-0.343-0.278-0.62-0.62-0.62zM1.241 25.87v-18.199h1.482v15.556c-0.004 0.343 0.271 0.623 0.613 0.627 0.034 0 0.067-0.002 0.1-0.007 1.283-0.196 2.579-0.3 3.877-0.31 1.798-0.031 3.589 0.239 5.297 0.8-3.858-0.467-7.772 0.061-11.37 1.532zM7.313 22.304c-1.128 0.003-2.255 0.075-3.374 0.217v-16.319c1.208-0.269 2.441-0.406 3.678-0.409 2.32 0 5.52 0.533 7.741 3.039l0.019 15.451c-1.29-0.844-3.809-1.979-8.064-1.979zM16.617 8.831c2.221-2.481 5.421-3.039 7.741-3.039 1.237 0.004 2.47 0.141 3.678 0.409v16.319c-1.113-0.143-2.234-0.218-3.356-0.223-4.23 0-6.755 1.135-8.064 1.979v-15.445zM30.753 25.87c-3.605-1.475-7.528-2.003-11.394-1.532 1.717-0.563 3.516-0.833 5.322-0.8 1.306 0.007 2.61 0.109 3.902 0.304 0.339 0.051 0.655-0.181 0.706-0.52 0.005-0.033 0.007-0.067 0.007-0.1v-15.55h1.482l-0.025 18.199z"></path>
</symbol>

<symbol id="icon-Всё для дома" viewBox="0 0 32 32">
<path d="M30.414 11.952h-0.636v-2.363c0-1.397-1.136-2.533-2.533-2.533h-9.181c-0.851 0-1.605 0.422-2.064 1.068-0.46-0.646-1.213-1.068-2.064-1.068h-5.768c-0.259 0-0.469 0.21-0.469 0.469s0.21 0.469 0.469 0.469h5.768c0.88 0 1.596 0.716 1.596 1.596v4.688c-0.010-0.009-0.020-0.018-0.030-0.028-0.556-0.518-1.309-0.817-2.069-0.817h-7.808c-0.041-0.629-0.47-1.183-1.062-1.393-0.167-0.059-0.343-0.088-0.52-0.088h-0.883v-2.363c0-0.88 0.716-1.596 1.596-1.596h1.538c0.259 0 0.469-0.21 0.469-0.469s-0.21-0.469-0.469-0.469h-1.538c-1.397 0-2.533 1.136-2.533 2.533v2.363h-0.636c-0.875 0-1.586 0.712-1.586 1.586v4.894c0 1.821 1.482 3.303 3.303 3.303h0.236c0 0-0.513 1.381-0.514 1.382-0.324 0.871 0.343 1.828 1.27 1.828h0.754c0.422 0 0.826-0.201 1.081-0.538l2.021-2.671h15.699l2.021 2.671c0.255 0.337 0.659 0.538 1.081 0.538 0 0 0.754 0 0.754 0 0.929 0 1.594-0.957 1.27-1.828l-0.514-1.382h0.236c1.821 0 3.303-1.482 3.303-3.303v-4.894c0-0.874-0.711-1.586-1.586-1.586zM16.469 9.589c0-0.88 0.716-1.596 1.596-1.596h9.181c0.88 0 1.596 0.716 1.596 1.596v2.363c0 0-0.882 0-0.883 0-0.623 0-1.221 0.4-1.463 0.974-0.068 0.161-0.108 0.333-0.12 0.507 0 0-7.808 0-7.808 0-0.772 0-1.541 0.311-2.099 0.844v-4.688zM5.628 14.37h7.805c1.157 0 2.099 0.942 2.099 2.099v0.667h-9.903v-2.766zM5.382 23.841c-0.079 0.104-0.203 0.166-0.333 0.166 0 0-0.752 0-0.754 0-0.287 0-0.492-0.294-0.392-0.563l0.635-1.708h2.437l-1.593 2.106zM27.705 24.007h-0.754c-0.13 0-0.255-0.062-0.333-0.166l-1.593-2.106h2.437c0 0 0.633 1.702 0.635 1.708 0.1 0.27-0.106 0.563-0.392 0.563zM28.697 20.797h-25.395c-1.304 0-2.365-1.061-2.365-2.365v-4.894c0-0.358 0.291-0.648 0.648-0.648h2.456c0.358 0 0.648 0.291 0.648 0.648v4.067c0 0.259 0.21 0.469 0.469 0.469h17.217c0.259 0 0.469-0.21 0.469-0.469s-0.21-0.469-0.469-0.469h-5.907v-0.667c0-1.157 0.942-2.099 2.099-2.099h7.805v2.766h-2.121c-0.259 0-0.469 0.21-0.469 0.469s0.21 0.469 0.469 0.469h2.59c0.259 0 0.469-0.21 0.469-0.469v-4.067c0-0.358 0.291-0.648 0.648-0.648h2.456c0.358 0 0.648 0.291 0.648 0.648v4.894h0c0 1.304-1.061 2.365-2.365 2.365z"></path>
</symbol>

<symbol id="icon-Спорт, хобби" viewBox="0 0 32 32">
<path d="M31.020 13.515h-1.907c-0.354 0-0.665 0.182-0.847 0.456-1.458-0.152-1.652-0.386-1.81-0.576-0.214-0.259-0.468-0.479-0.756-0.653l-4.383-2.662c-0.893-2.073-2.386-3.369-3.493-4.096-0.431-0.283-0.689-0.762-0.689-1.282 0-0.307 0.090-0.603 0.261-0.857l1.090-1.622c0.217-0.323 0.292-0.711 0.211-1.092s-0.307-0.705-0.636-0.912c-0.228-0.143-0.49-0.218-0.759-0.218h-5.178c-0.269 0-0.531 0.076-0.759 0.218-0.33 0.207-0.556 0.531-0.636 0.912s-0.006 0.769 0.211 1.092l1.090 1.622c0.171 0.254 0.261 0.551 0.261 0.857 0 0.52-0.258 0.999-0.689 1.282-1.642 1.077-5.311 4.25-3.924 10.452 0.774 3.459 1.371 5.897 1.731 7.070h-7.729c-0.637 0-1.195 0.453-1.325 1.077l-0.264 1.268c-0.084 0.401 0.017 0.813 0.275 1.13s0.641 0.5 1.050 0.5h26.594c0.409 0 0.792-0.182 1.050-0.5s0.358-0.73 0.275-1.13l-0.264-1.268c-0.13-0.624-0.688-1.077-1.325-1.077h-7.729c0.107-0.351 0.237-0.818 0.387-1.396h0.509c1.493 0 2.972-0.223 4.399-0.663l2.913-0.367c0.174 0.311 0.506 0.522 0.888 0.522h1.907c0.56 0 1.016-0.456 1.016-1.016v-6.054c0-0.561-0.456-1.017-1.016-1.017zM11.646 1.325c0.028-0.131 0.105-0.241 0.218-0.313 0.078-0.049 0.168-0.075 0.26-0.075h5.178c0.092 0 0.182 0.026 0.26 0.075 0.113 0.071 0.19 0.182 0.218 0.313s0.002 0.263-0.073 0.374l-0.539 0.803h-4.911l-0.539-0.803c-0.074-0.111-0.1-0.244-0.072-0.374zM12.116 6.767c0.697-0.457 1.113-1.229 1.113-2.066 0-0.447-0.121-0.88-0.348-1.262h3.664c-0.227 0.382-0.347 0.815-0.347 1.262 0 0.837 0.416 1.609 1.113 2.066 0.287 0.188 0.603 0.419 0.926 0.696h-7.043c0.328-0.282 0.645-0.513 0.923-0.696zM28.154 24.774l0.264 1.268c0.035 0.168-0.038 0.29-0.084 0.347s-0.151 0.154-0.323 0.154h-26.594c-0.172 0-0.276-0.096-0.323-0.154s-0.12-0.179-0.084-0.347l0.264-1.268c0.040-0.192 0.211-0.331 0.407-0.331h26.066c0.196 0 0.367 0.139 0.407 0.331zM19.033 23.506h-8.64c-0.193-0.575-0.683-2.285-1.8-7.275-0.471-2.104-0.358-4.009 0.332-5.676h1.727c0.259 0 0.469-0.21 0.469-0.469s-0.21-0.469-0.469-0.469h-1.262c0.265-0.456 0.559-0.86 0.864-1.216h8.919c0.306 0.357 0.6 0.761 0.863 1.216h-7.508c-0.259 0-0.469 0.21-0.469 0.469s0.21 0.469 0.469 0.469h6.212c-0.119 0.292-0.144 0.613-0.067 0.925 0.096 0.39 0.338 0.719 0.681 0.927l0.806 0.489h-5.21c-0.827 0-1.498 0.636-1.527 1.449-0.008 0.216 0.030 0.427 0.108 0.62h-0.481c-0.412 0-0.796 0.163-1.082 0.459s-0.435 0.686-0.42 1.098c0.023 0.644 0.449 1.177 1.036 1.371-0.093 0.195-0.145 0.414-0.145 0.644 0 0.829 0.675 1.503 1.503 1.503h0.71c-0.071 0.175-0.111 0.366-0.111 0.566 0 0.829 0.675 1.503 1.503 1.503h3.388c-0.197 0.745-0.324 1.163-0.402 1.395zM25.154 20.522c-0.028 0.003-0.054 0.009-0.081 0.017-1.348 0.42-2.748 0.633-4.16 0.633h-4.866c-0.312 0-0.566-0.254-0.566-0.566s0.254-0.566 0.566-0.566h3.072c0.259 0 0.469-0.21 0.469-0.469s-0.21-0.469-0.469-0.469h-5.176c-0.312 0-0.566-0.254-0.566-0.566s0.254-0.566 0.566-0.566h5.176c0.259 0 0.469-0.21 0.469-0.469s-0.21-0.469-0.469-0.469h-6.043c-0.315 0-0.58-0.244-0.59-0.545-0.005-0.155 0.051-0.302 0.158-0.414s0.252-0.173 0.407-0.173h6.068c0.259 0 0.469-0.21 0.469-0.469s-0.21-0.469-0.469-0.469h-4.193c-0.155 0-0.3-0.062-0.407-0.173s-0.164-0.259-0.158-0.414c0.011-0.3 0.276-0.545 0.59-0.545h6.461c0.266 0 0.494-0.172 0.566-0.429s-0.033-0.522-0.261-0.66l-1.876-1.139c-0.129-0.078-0.22-0.202-0.256-0.349s-0.013-0.299 0.065-0.428c0.162-0.267 0.511-0.353 0.777-0.191l4.786 2.907c0.198 0.12 0.372 0.271 0.52 0.449 0.383 0.463 0.875 0.741 2.363 0.904v5.255zM31.099 20.586c0 0.043-0.035 0.079-0.079 0.079h-1.907c-0.043 0-0.079-0.035-0.079-0.079v-6.055c0-0.043 0.035-0.079 0.079-0.079h1.907c0.043 0 0.079 0.035 0.079 0.079z"></path>
<path d="M22.477 30.488l-2.441-1.964c-0.202-0.162-0.497-0.13-0.659 0.072s-0.13 0.497 0.071 0.659l2.248 1.808h-13.965l2.253-1.812c0.202-0.162 0.234-0.457 0.071-0.659s-0.457-0.234-0.659-0.072l-2.446 1.968c-0.285 0.229-0.39 0.6-0.269 0.945s0.436 0.568 0.802 0.568h14.461c0.365 0 0.68-0.223 0.802-0.568s0.016-0.716-0.269-0.945z"></path>
</symbol>

<symbol id="icon-Здоровье" viewBox="0 0 32 32">
<path d="M31.882 17.829l-0.569-8.305c-0.037-0.538-0.282-1.029-0.689-1.382s-0.928-0.527-1.466-0.487c-1.057 0.077-1.877 0.968-1.866 2.027l0.067 6.771-2.933 3.756c-0.468 0.6-1.245 0.84-1.95 0.66l3.191-4.144c0.56-0.727 0.467-1.781-0.212-2.399-0.362-0.33-0.831-0.493-1.32-0.459s-0.931 0.261-1.244 0.638l-4.821 5.806c-0.795 0.958-1.226 2.17-1.214 3.415l0.075 7.71c0.003 0.307 0.253 0.555 0.56 0.555l8.027 0.011c0 0 0.001 0 0.001 0 0.157 0 0.307-0.066 0.413-0.181s0.159-0.271 0.146-0.428l-0.328-3.774 5.329-7.082c0.584-0.776 0.869-1.737 0.803-2.706zM30.183 19.861l-5.458 7.254c-0.083 0.11-0.123 0.248-0.111 0.386l0.293 3.378-6.86-0.009-0.069-7.155c-0.010-0.979 0.33-1.934 0.956-2.687l4.821-5.806c0.116-0.139 0.279-0.223 0.459-0.235s0.354 0.047 0.487 0.169c0.251 0.228 0.285 0.617 0.078 0.885l-3.621 4.703c-0.095 0.123-0.134 0.28-0.109 0.434s0.114 0.29 0.243 0.375c1.296 0.86 3.061 0.573 4.018-0.653l3.054-3.911c0.078-0.1 0.12-0.224 0.119-0.351l-0.069-6.967c-0.005-0.469 0.358-0.863 0.826-0.898 0.239-0.017 0.469 0.059 0.649 0.216s0.289 0.374 0.305 0.612l0.569 8.305c0.048 0.7-0.158 1.394-0.58 1.955z"></path>
<path d="M9.108 14.504c-0.313-0.377-0.755-0.604-1.244-0.638s-0.958 0.129-1.32 0.459c-0.679 0.618-0.772 1.672-0.212 2.399l3.191 4.144c-0.704 0.18-1.482-0.060-1.95-0.66l-2.933-3.756 0.067-6.771c0.010-1.060-0.809-1.95-1.866-2.027-0.537-0.039-1.058 0.134-1.466 0.487s-0.652 0.844-0.689 1.382l-0.57 8.305c-0.066 0.969 0.219 1.93 0.803 2.706l5.329 7.082-0.328 3.774c-0.014 0.157 0.039 0.312 0.146 0.428s0.256 0.181 0.413 0.181c0 0 0.001 0 0.001 0l8.027-0.011c0.307-0 0.557-0.248 0.56-0.555l0.075-7.71c0.012-1.244-0.419-2.457-1.214-3.415l-4.821-5.806zM13.952 30.868l-6.86 0.009 0.293-3.378c0.012-0.138-0.027-0.275-0.111-0.386l-5.458-7.254c-0.422-0.561-0.628-1.255-0.58-1.955l0.57-8.305c0.016-0.238 0.125-0.456 0.305-0.612 0.164-0.142 0.368-0.218 0.583-0.218 0.022 0 0.044 0.001 0.066 0.002 0.468 0.034 0.831 0.428 0.826 0.898l-0.069 6.967c-0.001 0.127 0.041 0.251 0.119 0.351l3.054 3.911c0.957 1.226 2.722 1.513 4.018 0.653 0.13-0.086 0.218-0.222 0.243-0.375s-0.014-0.311-0.109-0.434l-3.621-4.703c-0.207-0.268-0.172-0.657 0.078-0.885 0.134-0.122 0.307-0.182 0.487-0.169s0.343 0.096 0.459 0.235l4.821 5.806c0.626 0.754 0.965 1.708 0.956 2.687l-0.070 7.155z"></path>
<path d="M26.986 6.31c0-1.686-0.656-3.27-1.848-4.462s-2.776-1.848-4.462-1.848c-1.686 0-3.27 0.656-4.462 1.848l-0.213 0.213-0.213-0.213c-1.192-1.192-2.776-1.848-4.462-1.848s-3.27 0.656-4.462 1.848c-2.46 2.46-2.46 6.464 0 8.924l8.741 8.741c0.11 0.109 0.253 0.164 0.397 0.164s0.287-0.055 0.397-0.164l8.741-8.741c1.192-1.192 1.848-2.776 1.848-4.462zM16 18.323l-8.344-8.344c-2.023-2.023-2.023-5.315 0-7.338 0.98-0.98 2.283-1.52 3.669-1.52s2.689 0.54 3.669 1.52l0.61 0.61c0.105 0.105 0.248 0.164 0.396 0.164s0.291-0.059 0.397-0.164l0.61-0.61c0.98-0.98 2.283-1.52 3.669-1.52s2.689 0.54 3.669 1.52c0.98 0.98 1.52 2.283 1.52 3.669s-0.54 2.689-1.52 3.669l-8.344 8.344z"></path>
</symbol>

<symbol id="icon-Развлечения" viewBox="0 0 32 32">
<path d="M30.281 15.724l-1.285-1.285v-12.228l1.080-1.080c0.212-0.212 0.212-0.555 0-0.767s-0.555-0.212-0.767 0l-1.080 1.080h-12.228l-1.285-1.285c-0.212-0.212-0.555-0.212-0.767 0s-0.212 0.555 0 0.767l1.23 1.23-3.815 16.168c-0.315 0.393-0.42 0.917-0.273 1.407 0.164 0.545 0.612 0.953 1.169 1.066l2.433 0.494c0.461 0.094 0.854 0.385 1.076 0.8s0.249 0.903 0.072 1.339c-0.288 0.71-1.040 1.11-1.789 0.951l-9.115-1.931c-1.373-0.291-2.756 0.488-3.22 1.812-0.269 0.768-0.19 1.613 0.215 2.318s1.096 1.198 1.895 1.352l0.038 0.007c0.718 0.139 1.328 0.588 1.674 1.233s0.381 1.402 0.098 2.076c-0.116 0.276 0.014 0.594 0.29 0.71 0.069 0.029 0.139 0.042 0.209 0.042 0.212 0 0.413-0.125 0.5-0.333 0.41-0.977 0.358-2.073-0.142-3.007s-1.384-1.585-2.424-1.786l-0.038-0.007c-0.489-0.094-0.912-0.396-1.16-0.828s-0.296-0.949-0.132-1.42c0.284-0.811 1.132-1.288 1.972-1.11l9.115 1.931c1.264 0.268 2.533-0.407 3.019-1.604 0.298-0.736 0.254-1.559-0.122-2.259s-1.037-1.192-1.816-1.35l-2.433-0.494c-0.242-0.049-0.323-0.238-0.347-0.316-0.019-0.064-0.047-0.208 0.036-0.354l16.118-3.804 1.23 1.23c0.106 0.106 0.245 0.159 0.383 0.159s0.277-0.053 0.383-0.159c0.212-0.212 0.212-0.555 0-0.767zM27.145 2.528l-5.030 5.030-5.030-5.030h10.060zM16.080 3.057l5.268 5.268-8.522 8.522 3.254-13.79zM13.593 17.613l8.522-8.522 5.268 5.268-13.79 3.254zM27.911 13.355l-5.030-5.030 5.030-5.030v10.060z"></path>
</symbol>

<symbol id="icon-Комуналка, связь" viewBox="0 0 32 32">
<path d="M30.679 0h-29.358c-0.451 0-0.819 0.369-0.819 0.819s0.369 0.819 0.819 0.819h1.768v29.522c0 0.3 0.164 0.58 0.43 0.724s0.587 0.13 0.84-0.041l3.557-2.369 3.571 2.376c0.273 0.184 0.635 0.184 0.908 0l3.557-2.369 3.571 2.376c0.273 0.184 0.635 0.184 0.908 0l3.557-2.369 3.571 2.376c0.137 0.089 0.294 0.137 0.451 0.137 0.13 0 0.266-0.034 0.389-0.096 0.266-0.143 0.43-0.423 0.43-0.724l-0.014-29.522h1.864c0.451 0 0.819-0.369 0.819-0.819s-0.369-0.84-0.819-0.84zM27.197 29.631l-2.751-1.83c-0.273-0.184-0.635-0.184-0.908 0l-3.557 2.376-3.571-2.376c-0.273-0.184-0.635-0.184-0.908 0l-3.557 2.369-3.571-2.369c-0.273-0.184-0.635-0.184-0.908 0l-2.738 1.823v-27.992h22.462l0.007 27.999z"></path>
<path d="M8.497 13.081h8.582c0.451 0 0.819-0.369 0.819-0.819s-0.369-0.819-0.819-0.819h-8.582c-0.451 0-0.819 0.369-0.819 0.819s0.362 0.819 0.819 0.819z"></path>
<path d="M8.497 15.928h6.431c0.451 0 0.819-0.369 0.819-0.819s-0.369-0.819-0.819-0.819h-6.431c-0.451 0-0.819 0.369-0.819 0.819s0.362 0.819 0.819 0.819z"></path>
<path d="M21.366 13.081h2.144c0.451 0 0.819-0.369 0.819-0.819s-0.369-0.819-0.819-0.819h-2.144c-0.451 0-0.819 0.369-0.819 0.819s0.362 0.819 0.819 0.819z"></path>
<path d="M21.366 15.928h2.144c0.451 0 0.819-0.369 0.819-0.819s-0.369-0.819-0.819-0.819h-2.144c-0.451 0-0.819 0.369-0.819 0.819s0.362 0.819 0.819 0.819z"></path>
<path d="M8.497 6.506h8.582c0.451 0 0.819-0.369 0.819-0.819s-0.369-0.819-0.819-0.819h-8.582c-0.451 0-0.819 0.369-0.819 0.819s0.362 0.819 0.819 0.819z"></path>
<path d="M8.497 9.347h6.431c0.451 0 0.819-0.369 0.819-0.819s-0.369-0.819-0.819-0.819h-6.431c-0.451 0-0.819 0.369-0.819 0.819s0.362 0.819 0.819 0.819z"></path>
<path d="M21.366 6.506h2.144c0.451 0 0.819-0.369 0.819-0.819s-0.369-0.819-0.819-0.819h-2.144c-0.451 0-0.819 0.369-0.819 0.819s0.362 0.819 0.819 0.819z"></path>
<path d="M21.366 9.347h2.144c0.451 0 0.819-0.369 0.819-0.819s-0.369-0.819-0.819-0.819h-2.144c-0.451 0-0.819 0.369-0.819 0.819s0.362 0.819 0.819 0.819z"></path>
<path d="M8.497 19.738h8.582c0.451 0 0.819-0.369 0.819-0.819s-0.369-0.819-0.819-0.819h-8.582c-0.451 0-0.819 0.369-0.819 0.819s0.362 0.819 0.819 0.819z"></path>
<path d="M8.497 22.578h6.431c0.451 0 0.819-0.369 0.819-0.819s-0.369-0.819-0.819-0.819h-6.431c-0.451 0-0.819 0.369-0.819 0.819s0.362 0.819 0.819 0.819z"></path>
<path d="M21.366 19.738h2.144c0.451 0 0.819-0.369 0.819-0.819s-0.369-0.819-0.819-0.819h-2.144c-0.451 0-0.819 0.369-0.819 0.819s0.362 0.819 0.819 0.819z"></path>
<path d="M21.366 22.578h2.144c0.451 0 0.819-0.369 0.819-0.819s-0.369-0.819-0.819-0.819h-2.144c-0.451 0-0.819 0.369-0.819 0.819s0.362 0.819 0.819 0.819z"></path>
</symbol>

<symbol id="icon-Прочее" viewBox="0 0 32 32">
<path d="M31.996 22.334c-0.956-7.667-8.11-8.803-10.129-8.971v-6.963c0-0.048-0.067-4.8-5.867-4.8s-5.867 4.752-5.867 4.8v6.963c-2.019 0.167-9.171 1.303-10.129 8.971 0 0.011-0.004 0.053-0.004 0.066v2.133c0 0.295 0.239 0.533 0.533 0.533h2.667v1.067h-1.6c-0.295 0-0.533 0.239-0.533 0.533 0 1.291 0.78 3.733 3.733 3.733s3.733-2.442 3.733-3.733c0-0.295-0.239-0.533-0.533-0.533h-1.6v-1.067h8v1.067h-1.6c-0.295 0-0.533 0.239-0.533 0.533 0 1.291 0.78 3.733 3.733 3.733s3.733-2.442 3.733-3.733c0-0.295-0.239-0.533-0.533-0.533h-1.6v-1.067h8v1.067h-1.6c-0.295 0-0.533 0.239-0.533 0.533 0 1.291 0.78 3.733 3.733 3.733s3.733-2.442 3.733-3.733c0-0.295-0.239-0.533-0.533-0.533h-1.6v-1.067h2.667c0.295 0 0.533-0.239 0.533-0.533v-2.133c0-0.012 0-0.053-0.004-0.066zM11.2 6.4c0-0.153 0.053-3.733 4.8-3.733 4.714 0 4.8 3.583 4.8 3.733v6.933h-1.067v-3.2h-1.067v3.2h-7.467zM6.187 15.435c1.416-0.622 2.935-0.973 4.48-1.035h10.667c1.545 0.062 3.064 0.413 4.48 1.035 2.69 1.113 4.599 3.554 5.033 6.432h-29.693c0.434-2.878 2.344-5.319 5.033-6.432zM4.8 29.333c-1.299 0.098-2.448-0.84-2.611-2.133h5.219c-0.169 1.289-1.312 2.223-2.608 2.133zM5.333 26.133h-1.067v-1.067h1.067zM16 29.333c-1.299 0.098-2.448-0.84-2.611-2.133h5.219c-0.169 1.289-1.312 2.223-2.608 2.133zM16.533 26.133h-1.067v-1.067h1.067zM27.2 29.333c-1.301 0.099-2.45-0.839-2.613-2.133h5.221c-0.169 1.289-1.312 2.223-2.608 2.133zM27.733 26.133h-1.067v-1.067h1.067zM30.933 24h-29.867v-1.067h29.867z"></path>
<path d="M16 15.467c-1.473 0-2.667 1.194-2.667 2.667s1.194 2.667 2.667 2.667 2.667-1.194 2.667-2.667c-0.002-1.472-1.195-2.665-2.667-2.667zM16 19.733c-0.884 0-1.6-0.716-1.6-1.6s0.716-1.6 1.6-1.6 1.6 0.716 1.6 1.6-0.716 1.6-1.6 1.6z"></path>
<path d="M17.067 18.133c0 0.589-0.478 1.067-1.067 1.067s-1.067-0.478-1.067-1.067 0.478-1.067 1.067-1.067 1.067 0.478 1.067 1.067z"></path>
<path d="M18.667 8h1.067v1.067h-1.067z"></path>
<path d="M18.667 6.4v0.533h1.067v-0.533c0-0.273-0.107-2.667-3.733-2.667v1.067c2.475 0 2.667 1.227 2.667 1.6z"></path>
<path d="M11.2 17.6h1.067v1.067h-1.067z"></path>
<path d="M9.067 17.6h1.067v1.067h-1.067z"></path>
<path d="M19.733 17.6h1.067v1.067h-1.067z"></path>
<path d="M21.867 17.6h1.067v1.067h-1.067z"></path>
</symbol>

<symbol id="icon-Алкоголь" viewBox="0 0 32 32">
<path d="M7.734 2.7c-0.262 0-0.475 0.213-0.475 0.475v0.201c0 0.262 0.213 0.475 0.475 0.475s0.475-0.213 0.475-0.475v-0.201c-0-0.262-0.213-0.475-0.475-0.475z"></path>
<path d="M6.354 4.281h-0.201c-0.262 0-0.475 0.213-0.475 0.475s0.213 0.475 0.475 0.475h0.201c0.262 0 0.475-0.213 0.475-0.475s-0.213-0.475-0.475-0.475z"></path>
<path d="M7.094 3.444l-0.142-0.142c-0.185-0.185-0.486-0.185-0.671 0s-0.185 0.486 0 0.671l0.142 0.142c0.093 0.093 0.214 0.139 0.336 0.139s0.243-0.046 0.336-0.139c0.185-0.185 0.185-0.486-0-0.671z"></path>
<path d="M7.094 5.396c-0.185-0.185-0.486-0.185-0.671 0l-0.142 0.142c-0.185 0.185-0.185 0.486 0 0.671 0.093 0.093 0.214 0.139 0.336 0.139s0.243-0.046 0.336-0.139l0.142-0.142c0.185-0.185 0.185-0.486 0-0.671z"></path>
<path d="M28.455 3.916h-16.040c-0.181-1.016-0.688-1.946-1.455-2.655-0.88-0.814-2.026-1.262-3.226-1.262-2.622 0-4.756 2.133-4.756 4.756s2.133 4.756 4.756 4.756c0.482 0 0.955-0.073 1.411-0.215 0.715 0.675 1.602 1.18 2.603 1.44 0.647 0.168 1.138 0.702 1.252 1.36l0.604 3.496c0.213 1.235 0.9 2.306 1.935 3.015 0.785 0.538 1.253 1.414 1.253 2.345v7.125c-0.362 0.229-0.594 0.633-0.594 1.078 0 0.014 0 0.027 0.001 0.041-1.186 0.242-2.163 0.466-2.905 0.664-0.505 0.135-0.886 0.254-1.165 0.364-0.26 0.102-0.744 0.293-0.744 0.736 0 0.595 0.773 0.696 1.394 0.778 0.534 0.070 1.273 0.128 2.198 0.174 1.562 0.076 3.144 0.089 3.16 0.089 0.001 0 0.002 0 0.004 0s0.002 0 0.004 0c0.016-0 1.598-0.013 3.16-0.089 0.925-0.045 1.664-0.104 2.198-0.174 0.621-0.082 1.394-0.183 1.394-0.778 0-0.47-0.434-0.713-2.018-1.129-0.96-0.252-2.156-0.506-3.015-0.68-0.001-0.343-0.137-0.663-0.375-0.899v-7.3c0-0.931 0.468-1.807 1.253-2.345 1.035-0.709 1.722-1.78 1.935-3.015l0.604-3.496c0.114-0.658 0.605-1.192 1.252-1.36 2.169-0.564 3.8-2.274 4.316-4.381 0.002-0.008 0.004-0.016 0.006-0.024 0.109-0.453 0.167-0.924 0.167-1.406v-0.443c0-0.312-0.254-0.566-0.566-0.566zM7.734 8.562c-2.099 0-3.806-1.707-3.806-3.806s1.708-3.806 3.806-3.806c0.96 0 1.877 0.359 2.581 1.010 0.572 0.528 0.963 1.21 1.131 1.957h-0.486c-0.376-1.448-1.695-2.494-3.226-2.494-1.838 0-3.334 1.496-3.334 3.334s1.496 3.334 3.334 3.334c0.137 0 0.274-0.009 0.411-0.026 0.091 0.149 0.189 0.293 0.292 0.433-0.231 0.043-0.466 0.065-0.703 0.065zM9.188 3.302c-0.185-0.185-0.486-0.185-0.671 0l-0.142 0.142c-0.128 0.128-0.168 0.31-0.119 0.472h-0.43c-0.312 0-0.566 0.254-0.566 0.566v0.443c0 0.482 0.058 0.952 0.167 1.405 0.002 0.009 0.004 0.017 0.006 0.026 0.066 0.267 0.149 0.529 0.249 0.782-1.291-0.028-2.332-1.086-2.332-2.383 0-1.315 1.070-2.385 2.385-2.385 1.009 0 1.889 0.635 2.232 1.545h-0.73c0.135-0.186 0.119-0.447-0.048-0.614zM19.606 30.068c1.669 0.336 2.717 0.59 3.373 0.774-1.2 0.118-3.124 0.195-4.838 0.208-1.714-0.013-3.638-0.090-4.838-0.208 0.627-0.176 1.613-0.416 3.158-0.731 0.427-0.087 0.723-0.487 0.688-0.93-0.001-0.009-0.001-0.017-0.001-0.026 0-0.147 0.099-0.276 0.242-0.315 0.208-0.056 0.352-0.244 0.352-0.459v-7.43c0-0.625-0.157-1.231-0.446-1.771 0.265 0.017 0.555 0.026 0.845 0.026s0.58-0.009 0.845-0.026c-0.289 0.539-0.446 1.145-0.446 1.771v7.525c0 0.163 0.084 0.314 0.221 0.401 0.096 0.061 0.153 0.164 0.153 0.276 0 0.007-0 0.014-0.001 0.021-0.027 0.424 0.27 0.807 0.692 0.892zM28.072 4.926h-0c0 0.285-0.024 0.566-0.070 0.841h-14.294c-0.262 0-0.475 0.213-0.475 0.475s0.213 0.475 0.475 0.475h14.036c-0.568 1.499-1.831 2.68-3.451 3.101-1.007 0.262-1.772 1.093-1.948 2.117l-0.604 3.496c-0.169 0.98-0.715 1.83-1.536 2.393-0.127 0.087-0.506 0.291-0.575 0.322-0.376 0.148-2.601 0.148-2.98 0-0.069-0.030-0.448-0.235-0.575-0.322-0.821-0.563-1.367-1.413-1.536-2.393l-0.604-3.496c-0.177-1.024-0.942-1.855-1.948-2.117-0.916-0.238-1.719-0.72-2.346-1.365-0.015-0.018-0.031-0.035-0.048-0.051-0.458-0.484-0.819-1.057-1.057-1.686h2.962c0.262 0 0.475-0.213 0.475-0.475s-0.213-0.475-0.475-0.475h-3.22c-0.046-0.274-0.070-0.555-0.070-0.841v-0.060h19.863v0.060z"></path>
</symbol>

<symbol id="icon-Образование" viewBox="0 0 32 32">
<path d="M31.38 6.431c-0.002 0-0.004 0-0.006 0h-2.103v-0.72c0.011-0.285-0.173-0.541-0.447-0.62-1.46-0.383-2.963-0.574-4.472-0.571-2.481 0-5.862 0.558-8.361 3.101-2.481-2.568-5.886-3.101-8.361-3.101-1.509-0.004-3.012 0.188-4.472 0.571-0.274 0.080-0.458 0.335-0.447 0.62v0.713h-2.090c-0.343 0-0.62 0.278-0.62 0.62v19.812c0 0.343 0.278 0.62 0.62 0.62 0.107-0 0.211-0.028 0.304-0.081 0.062-0.031 6.265-3.424 14.924-1.241h0.149c0.049 0.006 0.099 0.006 0.149 0 8.684-2.202 14.887 1.185 14.924 1.241 0.192 0.111 0.428 0.111 0.62 0 0.191-0.11 0.309-0.313 0.31-0.533v-19.812c0-0.343-0.278-0.62-0.62-0.62zM1.241 25.871v-18.199h1.482v15.556c-0.004 0.343 0.271 0.623 0.613 0.627 0.034 0 0.067-0.002 0.1-0.007 1.283-0.196 2.579-0.3 3.877-0.31 1.798-0.031 3.588 0.239 5.297 0.8-3.858-0.467-7.772 0.061-11.37 1.532zM7.313 22.304c-1.128 0.003-2.255 0.075-3.374 0.217v-16.319c1.208-0.269 2.441-0.406 3.678-0.409 2.32 0 5.52 0.533 7.741 3.039l0.019 15.451c-1.29-0.844-3.809-1.979-8.064-1.979zM16.617 8.832c2.221-2.481 5.421-3.039 7.741-3.039 1.237 0.004 2.47 0.141 3.678 0.409v16.319c-1.113-0.143-2.234-0.218-3.356-0.223-4.23 0-6.755 1.135-8.064 1.979v-15.445zM30.753 25.871c-3.605-1.475-7.528-2.003-11.394-1.532 1.717-0.563 3.516-0.833 5.322-0.8 1.306 0.007 2.61 0.109 3.902 0.304 0.339 0.051 0.655-0.182 0.706-0.52 0.005-0.033 0.007-0.067 0.007-0.1v-15.55h1.482l-0.025 18.199z"></path>
</symbol>

<symbol id="icon-Доп. доход" viewBox="0 0 32 32">
<path d="M11.67 19.346c0-0.259-0.21-0.469-0.469-0.469h-4.546c-0.259 0-0.469 0.21-0.469 0.469v3.030c0 0.259 0.21 0.469 0.469 0.469h4.546c0.259 0 0.469-0.21 0.469-0.469v-3.030zM10.733 21.908h-3.608v-2.093h3.608v2.093z"></path>
<path d="M22.819 21.835h2.525c0.259 0 0.469-0.21 0.469-0.469s-0.21-0.469-0.469-0.469h-2.525c-0.259 0-0.469 0.21-0.469 0.469s0.21 0.469 0.469 0.469z"></path>
<path d="M22.819 19.815h2.525c0.259 0 0.469-0.21 0.469-0.469s-0.21-0.469-0.469-0.469h-2.525c-0.259 0-0.469 0.21-0.469 0.469s0.21 0.469 0.469 0.469z"></path>
<path d="M27.364 24.402c-0.259 0-0.469 0.21-0.469 0.469v6.029c0 0.090-0.073 0.163-0.163 0.163h-21.466c-0.090 0-0.163-0.073-0.163-0.163v-10.373c0-0.259-0.21-0.469-0.469-0.469s-0.469 0.21-0.469 0.469v10.373c0 0.607 0.494 1.1 1.1 1.1h21.466c0.607 0 1.1-0.494 1.1-1.1v-6.029c0-0.259-0.21-0.469-0.469-0.469z"></path>
<path d="M26.733 15.91h-7.739v-2.378c2.422-1.131 4.104-3.59 4.104-6.435 0-3.914-3.184-7.098-7.098-7.098-1.358 0-2.679 0.385-3.818 1.113-1.109 0.709-1.998 1.708-2.571 2.89-0.113 0.233-0.016 0.513 0.217 0.626s0.513 0.016 0.626-0.217c1.040-2.144 3.165-3.475 5.546-3.475 3.397 0 6.16 2.764 6.16 6.16s-2.764 6.16-6.16 6.16c-3.397 0-6.16-2.764-6.16-6.16 0-0.239 0.014-0.481 0.041-0.717 0.030-0.257-0.155-0.49-0.412-0.52s-0.49 0.154-0.52 0.412c-0.031 0.272-0.047 0.55-0.047 0.825 0 2.845 1.682 5.303 4.104 6.435v2.378h-7.739c-0.607 0-1.1 0.494-1.1 1.1v1.318c0 0.259 0.21 0.469 0.469 0.469s0.469-0.21 0.469-0.469v-1.318c0-0.090 0.073-0.163 0.163-0.163h6.101l4.279 4.891c0.089 0.102 0.218 0.16 0.353 0.16s0.264-0.058 0.353-0.16l4.279-4.891h6.101c0.090 0 0.163 0.073 0.163 0.163v5.66c0 0.259 0.21 0.469 0.469 0.469s0.469-0.21 0.469-0.469v-5.66c-0-0.607-0.494-1.1-1.1-1.1zM16 20.718l-3.386-3.87h0.861c0.259 0 0.469-0.21 0.469-0.469v-2.487c0.651 0.198 1.342 0.304 2.057 0.304s1.405-0.107 2.057-0.304v2.487c0 0.259 0.21 0.469 0.469 0.469h0.861l-3.386 3.87z"></path>
<path d="M6.656 27.454h1.263c0.259 0 0.469-0.21 0.469-0.469s-0.21-0.469-0.469-0.469h-1.263c-0.259 0-0.469 0.21-0.469 0.469s0.21 0.469 0.469 0.469z"></path>
<path d="M11.202 26.517h-1.263c-0.259 0-0.469 0.21-0.469 0.469s0.21 0.469 0.469 0.469h1.263c0.259 0 0.469-0.21 0.469-0.469s-0.21-0.469-0.469-0.469z"></path>
<path d="M14.485 27.454c0.259 0 0.469-0.21 0.469-0.469s-0.21-0.469-0.469-0.469h-1.263c-0.259 0-0.469 0.21-0.469 0.469s0.21 0.469 0.469 0.469h1.263z"></path>
<path d="M17.768 27.454c0.259 0 0.469-0.21 0.469-0.469s-0.21-0.469-0.469-0.469h-1.263c-0.259 0-0.469 0.21-0.469 0.469s0.21 0.469 0.469 0.469h1.263z"></path>
<path d="M6.656 29.98h5.051c0.259 0 0.469-0.21 0.469-0.469s-0.21-0.469-0.469-0.469h-5.051c-0.259 0-0.469 0.21-0.469 0.469s0.21 0.469 0.469 0.469z"></path>
<path d="M19.824 28.248c0 0.955 0.777 1.731 1.732 1.731 0.498 0 0.947-0.211 1.263-0.549 0.316 0.337 0.765 0.549 1.263 0.549 0.955 0 1.731-0.777 1.731-1.731s-0.777-1.732-1.731-1.732c-0.498 0-0.947 0.211-1.263 0.549-0.316-0.337-0.765-0.549-1.263-0.549-0.955 0-1.732 0.777-1.732 1.732zM24.081 27.454c0.438 0 0.794 0.356 0.794 0.794s-0.356 0.794-0.794 0.794-0.794-0.356-0.794-0.794c0-0.438 0.356-0.794 0.794-0.794zM22.35 28.248c0 0.438-0.356 0.794-0.794 0.794s-0.794-0.356-0.794-0.794c0-0.438 0.356-0.794 0.794-0.794s0.794 0.356 0.794 0.794z"></path>
<path d="M14.447 9.551c-0.216-0.142-0.507-0.081-0.649 0.136s-0.081 0.507 0.136 0.649c0.606 0.396 1.020 0.514 1.555 0.543v0.517c0 0.259 0.21 0.469 0.469 0.469s0.469-0.21 0.469-0.469v-0.554c1.063-0.207 1.683-1.082 1.82-1.9 0.176-1.050-0.373-1.962-1.399-2.325-0.138-0.049-0.28-0.1-0.422-0.154v-2.248c0.358 0.084 0.571 0.265 0.589 0.281 0.19 0.173 0.485 0.16 0.659-0.030 0.176-0.19 0.164-0.487-0.027-0.662-0.027-0.025-0.48-0.433-1.222-0.543v-0.462c0-0.259-0.21-0.469-0.469-0.469s-0.469 0.21-0.469 0.469v0.497c-0.071 0.016-0.144 0.034-0.218 0.056-0.676 0.204-1.181 0.782-1.318 1.509-0.125 0.663 0.087 1.302 0.554 1.668 0.248 0.195 0.557 0.373 0.981 0.562v2.848c-0.37-0.026-0.623-0.116-1.042-0.389zM15.086 5.794c-0.19-0.149-0.271-0.439-0.211-0.757 0.054-0.286 0.244-0.63 0.614-0.767v1.781c-0.152-0.082-0.289-0.167-0.403-0.257zM16.535 7.502c0.878 0.311 0.824 1.063 0.787 1.286-0.073 0.437-0.378 0.9-0.896 1.082v-2.407c0.036 0.013 0.072 0.026 0.109 0.039z"></path>
</symbol>

<symbol id="icon-ЗП" viewBox="0 0 32 32">
<path d="M15.413 12.95c-0.109-0.039-0.22-0.079-0.331-0.12v-2.017c0.368 0.146 0.626 0.35 0.637 0.358 0.266 0.218 0.658 0.18 0.878-0.085s0.183-0.66-0.083-0.88c-0.037-0.030-0.617-0.502-1.431-0.701v-0.306c0-0.345-0.28-0.625-0.625-0.625s-0.625 0.28-0.625 0.625v0.277c-0.066 0.014-0.133 0.030-0.2 0.050-0.719 0.216-1.237 0.822-1.388 1.62-0.146 0.775 0.107 1.549 0.644 1.97 0.245 0.192 0.544 0.368 0.944 0.552v2.643c-0.283-0.040-0.495-0.136-0.833-0.357-0.289-0.189-0.676-0.108-0.865 0.181s-0.108 0.676 0.181 0.865c0.594 0.388 1.012 0.525 1.518 0.568v0.389c0 0.345 0.28 0.625 0.625 0.625s0.625-0.28 0.625-0.625v-0.448c1.040-0.264 1.706-1.151 1.853-2.027 0.189-1.126-0.422-2.144-1.522-2.532zM13.832 12.254c-0.062-0.040-0.12-0.080-0.172-0.121-0.169-0.132-0.245-0.443-0.187-0.755 0.020-0.105 0.1-0.415 0.359-0.58v1.456zM15.702 15.275c-0.057 0.34-0.268 0.696-0.62 0.898v-2.012c0.678 0.285 0.661 0.869 0.62 1.114z"></path>
<path d="M29.594 13.353l-3.969-2.621v-10.107c0-0.345-0.28-0.625-0.625-0.625h-15c-0.345 0-0.625 0.28-0.625 0.625v2.375h-2.375c-0.345 0-0.625 0.28-0.625 0.625v7.107l-3.969 2.621c-0.175 0.116-0.281 0.312-0.281 0.521v17.5c0 0.345 0.28 0.625 0.625 0.625h10.438c0.345 0 0.625-0.28 0.625-0.625s-0.28-0.625-0.625-0.625h-8.929l9.112-9.112 2.284 1.509c0.104 0.069 0.224 0.103 0.344 0.103s0.24-0.035 0.344-0.103l2.285-1.509 9.112 9.112h-8.929c-0.345 0-0.625 0.28-0.625 0.625s0.28 0.625 0.625 0.625h10.438c0.345 0 0.625-0.28 0.625-0.625v-17.5c0-0.21-0.105-0.406-0.28-0.522zM28.116 13.875l-2.491 1.645v-3.29l2.491 1.645zM10.625 1.25h13.75v15.095l-1.75 1.156v-13.876c0-0.345-0.28-0.625-0.625-0.625h-11.375v-1.75zM6.375 12.23v3.29l-2.491-1.645 2.491-1.645zM3.375 29.866v-14.829l8.931 5.898-8.931 8.931zM16 21.876l-8.375-5.531v-12.095h13.75v14.077l-5.375 3.55zM28.625 15.037v14.829l-8.931-8.931 8.931-5.898z"></path>
<path d="M16 30.75c-0.164 0-0.326 0.067-0.442 0.183s-0.183 0.277-0.183 0.442c0 0.164 0.067 0.326 0.183 0.442s0.277 0.183 0.442 0.183 0.326-0.067 0.442-0.183c0.116-0.116 0.183-0.277 0.183-0.442s-0.067-0.326-0.183-0.442c-0.116-0.116-0.277-0.183-0.442-0.183z"></path>
</symbol>

</defs>
</svg>